<svg height="566" viewBox="0 0 497 566" width="497" xmlns="http://www.w3.org/2000/svg" xmlns:xlink="http://www.w3.org/1999/xlink"><filter id="a" height="119.9%" width="122.9%" x="-11.5%"><feOffset dx="0" dy="2" in="SourceAlpha" result="shadowOffsetOuter1"/><feGaussianBlur in="shadowOffsetOuter1" result="shadowBlurOuter1" stdDeviation="10"/><feColorMatrix in="shadowBlurOuter1" result="shadowMatrixOuter1" type="matrix" values="0 0 0 0 0   0 0 0 0 0   0 0 0 0 0  0 0 0 0.194902753 0"/><feMerge><feMergeNode in="shadowMatrixOuter1"/><feMergeNode in="SourceGraphic"/></feMerge></filter><g fill="none" fill-rule="evenodd" filter="url(#a)" transform="translate(28 25)"><path d="m376.496094 64.59375c-41.65625-41.652344-97.042969-64.59375-155.949219-64.59375-58.910156 0-114.292969 22.941406-155.949219 64.59375-41.65625 41.65625-64.597656 97.042969-64.597656 155.953125 0 58.90625 22.9375 114.292969 64.597656 155.945313l121.117188 121.121093c9.277344 9.277344 21.644531 14.386719 34.832031 14.386719 13.183594 0 25.550781-5.109375 34.824219-14.386719l121.125-121.121093c41.652344-41.652344 64.59375-97.039063 64.59375-155.945313 0-58.910156-22.941406-114.296875-64.59375-155.953125z" fill="#e8b801" fill-rule="nonzero" stroke="#fff" stroke-width="15"/><g transform="translate(136 111)"><path d="m171 85.4685831c0 40.8002129-28.749766 75.0091309-67.060643 83.4602859v17.534146h6.806198c9.127848 0 16.553902 7.423325 16.553902 16.547819s-7.426054 16.547819-16.553902 16.547819h-6.806198v11.9282c0 10.208476-8.3082127 18.513147-18.5199529 18.513147-10.2117401 0-18.5199525-8.30516-18.5199525-18.513147v-11.9282h-6.6450069c-9.1278479 0-16.553902-7.423325-16.553902-16.547819s7.4260541-16.547819 16.553902-16.547819h6.6572183l.0605691-17.553189c-38.2664277-8.484846-66.9722321-42.67228-66.9722321-83.4412429 0-17.3334623 5.16301988-34.0248359 14.931727-48.2699253 1.1434844-1.6679655 3.4241031-2.0937459 5.0926817-.9497052 1.6690671 1.1435525 2.0945155 3.4228449.9505427 5.0912987-8.9285563 13.0199941-13.64805469 28.2792416-13.64805469 44.1283318 0 43.0887829 35.06848149 78.1443789 78.17310329 78.1443789 43.104622 0 78.173103-35.055596 78.173103-78.1443789 0-43.0892713-35.068481-78.14437866-78.173103-78.14437866-21.0980433 0-40.8748029 8.27439786-55.6858804 23.29878266-1.4194641 1.4409151-3.7391596 1.4575166-5.1801159.0380858-1.4414449-1.4194308-1.4580525-3.7382739-.0380999-5.1787008 16.1987917-16.43258509 37.8282792-25.4823721 60.9040962-25.4823721 47.145161 0 85.5 38.3407454 85.5 85.4685831z" fill="#fff" fill-rule="nonzero"/><circle cx="85.5" cy="85.5" fill="#fff" r="85.5"/><path d="m140 85.5c0-30.0514936-24.224694-54.5-54-54.5-29.7753058 0-54 24.4485064-54 54.5 0 30.051494 24.2246942 54.5 54 54.5 29.775306 0 54-24.448506 54-54.5z" fill="#e8b801" fill-rule="nonzero"/></g></g></svg>