<?xml version="1.0" encoding="UTF-8"?>
<svg width="179px" height="383px" viewBox="0 0 179 383" version="1.1" xmlns="http://www.w3.org/2000/svg" xmlns:xlink="http://www.w3.org/1999/xlink">
    <!-- Generator: Sketch 48.2 (47327) - http://www.bohemiancoding.com/sketch -->
    <title>Copa_America</title>
    <desc>Created with Sketch.</desc>
    <defs></defs>
    <g id="Artboard" stroke="none" stroke-width="1" fill="none" fill-rule="evenodd" transform="translate(-219.000000, -20.000000)">
        <g id="Copa_America" transform="translate(219.000000, 20.000000)">
            <path d="M0,342 L0,371.694034 C0,378.020703 38.7428183,382.456321 85.5786519,382.895823 L85.5786519,383 C134.53122,383 179,378.432829 179,371.76346 L179,342.069456 C117.158734,342.090016 63.6027636,342.047183 0,342 Z" id="path3055" fill="#FFFFFF" fill-rule="nonzero"></path>
            <path d="M178.999998,342 C179.006487,345.929656 161.949303,349.561148 134.255243,351.526206 C106.561182,353.491265 72.4388183,353.491265 44.7447574,351.526206 C17.0506965,349.561148 -0.00648744415,345.929656 1.85094773e-06,342 C-0.00648744414,338.070344 17.0506965,334.438852 44.7447574,332.473794 C72.4388183,330.508735 106.561182,330.508735 134.255243,332.473794 C161.949303,334.438852 179.006487,338.070344 178.999998,342 Z" id="path3029" fill="#FFFFFF" fill-rule="nonzero"></path>
            <path d="M9,313 L9,339.072806 C9,344.62796 43.4140108,348.522646 85.0167928,348.908589 L85.0167928,349 C128.499805,349 168,344.989792 168,339.13379 L168,313.060951 C113.068375,313.079316 65.4963143,313.04159 9,313 Z" id="path3062" fill="#FFFFFF" fill-rule="nonzero"></path>
            <path d="M167.999998,314 C168.005763,317.572414 152.854409,320.873771 128.254657,322.660188 C103.654904,324.446604 73.3450956,324.446604 48.7453432,322.660188 C24.1455907,320.873771 8.99423741,317.572414 9.00000164,314 C8.99423741,310.427586 24.1455907,307.126229 48.7453432,305.339812 C73.3450956,303.553396 103.654904,303.553396 128.254657,305.339812 C152.854409,307.126229 168.005763,310.427586 167.999998,314 Z" id="path3060" fill="#FFFFFF" fill-rule="nonzero"></path>
            <path d="M20,289 L20,311.451576 C20,316.235193 49.868762,319.588929 85.9768378,319.921235 L85.9768378,320 C123.71681,320 158,316.546784 158,311.504118 L158,289.052477 C110.323492,289.068319 69.0345329,289.035979 20,289 Z" id="path3066" fill="#FFFFFF" fill-rule="nonzero"></path>
            <path d="M157.999999,288.5 C158.005001,291.536552 144.85477,294.342706 123.504042,295.86116 C102.153313,297.379613 75.8466867,297.379613 54.4959582,295.86116 C33.1452297,294.342706 19.9949985,291.536552 20.0000014,288.5 C19.9949985,285.463448 33.1452297,282.657294 54.4959582,281.13884 C75.8466867,279.620387 102.153313,279.620387 123.504042,281.13884 C144.85477,282.657294 158.005001,285.463448 157.999999,288.5 Z" id="path3064" fill="#FFFFFF" fill-rule="nonzero"></path>
            <path d="M29,267 L29,286.554595 C29,290.720974 54.7563957,293.641949 85.8930713,293.931392 L85.8930713,294 C118.436955,294 148,290.99236 148,286.600365 L148,267.045737 C106.887647,267.059766 71.2834013,267.031044 29,267 Z" id="path3070" fill="#FFFFFF" fill-rule="nonzero"></path>
            <path d="M147.999999,266.5 C148.004313,269.179311 136.664621,271.655328 118.253485,272.995141 C99.8423499,274.334953 77.1576501,274.334953 58.7465147,272.995141 C40.3353792,271.655328 28.9956871,269.179311 29.0000012,266.5 C28.9956871,263.820689 40.3353792,261.344672 58.7465147,260.004859 C77.1576501,258.665047 99.8423499,258.665047 118.253485,260.004859 C136.664621,261.344672 148.004313,263.820689 147.999999,266.5 Z" id="path3068" fill="#FFFFFF" fill-rule="nonzero"></path>
            <path d="M37,261 L37,266.592677 C38.5056436,270.484948 66.5098689,271.831139 86.8341376,271.995147 C86.9603504,271.995147 87.0952835,271.995147 87.2208985,271.995147 C88.4982172,271.995147 89.809942,272.006066 91.165855,271.995147 C111.490124,271.831139 139.494353,270.484948 141,266.592677 L141,261 C140.559198,265.279552 106.280151,266.362224 88.9999981,266.440508 C71.719845,266.362224 37.4408017,265.279552 37,261 Z" id="path3013" fill="#FFFFFF" fill-rule="nonzero"></path>
            <path d="M130.131914,250 C136.351327,250.444351 134.242256,257.810134 140.999613,260.597528 C141.231365,267.959968 37.2102052,267.639902 37,260.597528 C43.9688702,257.814005 41.8572217,250.218665 48.30295,250 C48.30295,255.746505 130.131914,255.772839 130.131914,250 Z" id="path3020" fill="#FFFFFF" fill-rule="nonzero"></path>
            <path d="M64.0897943,209 C85.3510223,230.207825 52.4819382,247.971554 48,250.553877 C48.1541416,256.540239 130.140957,256.423556 129.999818,250.553877 C125.517883,247.971554 92.648792,230.207825 113.910016,209 C107.884559,209 70.1430433,209 64.0897943,209 Z" id="path3022" fill="#FFFFFF" fill-rule="nonzero"></path>
            <path d="M25,84 C25,132.385907 26.1237844,177.977364 62.6571704,204 L86.9770193,203.903721 L89.022977,203.903721 L113.34283,204 C149.876216,177.977364 151,132.385907 151,84 L89.022977,84 L86.9770193,84 L25,84 Z" id="path3765" fill="#FFFFFF" fill-rule="nonzero"></path>
            <path d="M33.7697601,75 C32.4423074,75.3748736 31.1135825,76.3217106 30.0051934,77.4898787 L25.3955253,78.7854244 C24.7761614,78.9603364 24.9688874,80 25.3955253,80 L86.8001813,80 L90.1998153,80 L151.604479,80 C152.031109,80 152.223839,78.9603364 151.604479,78.7854244 L146.994807,77.4898787 C145.886418,76.3217106 144.557689,75.3748736 143.23024,75 L90.1998153,75 L86.8001813,75 L33.7697601,75 Z" id="path3775" fill="#FFFFFF" fill-rule="nonzero"></path>
            <path d="M24.5093706,78 C23.8369839,78 23.8234693,84 24.5093706,84 C69.0986801,84 106.819342,84 152.489853,84 C153.164458,84 153.175617,78 152.489853,78 C110.192283,78 62.9340717,78 24.5093706,78 Z" id="path3770" fill="#FFFFFF" fill-rule="nonzero"></path>
            <path d="M44.6412573,17 C52.0229347,32.9961814 51.1893125,48.410867 39,63 L86.113162,63 L89.886838,63 L137,63 C124.810691,48.410867 123.977069,32.9961814 131.358746,17 L89.8483282,17 L86.1516681,17 L44.6412573,17 Z" id="path3785" fill="#FFFFFF" fill-rule="nonzero"></path>
            <path d="M89.2895738,209.019361 L78,209 C86.7401598,224.654924 85.8112204,242.451586 108.050191,254 C112.46169,253.800595 116.972547,253.448866 121,252.907419 C89.5656318,236.854139 93.211361,222.861256 89.2895738,209.019391 L89.2895738,209.019361 Z" id="path3821" fill="#FFFFFF" fill-rule="nonzero"></path>
            <path d="M70.9215069,209.028764 C84.3917267,221.348215 75.4647525,241.664575 91,254 L74.4345244,253.741312 C72.796047,238.560913 79.367098,223.794934 67,209 L70.9215069,209.028764 Z" id="path3823" fill="#FFFFFF" fill-rule="nonzero"></path>
            <path d="M57.6587196,253 C50.9248836,252.117273 48.0525488,251.434249 48,250.219546 C70.9771732,236.50435 70.9555604,225.906254 70.8465793,222 C71.9138748,230.112457 67.4013879,244.206335 57.6587196,253 Z" id="path3825" fill="#FFFFFF" fill-rule="nonzero"></path>
            <path d="M38.9697365,63 C34.0499495,63 29.8992683,70.2974223 33.1595562,75 L86.7681083,75 L90.2154805,75 L143.843407,75 C147.103695,70.2974223 142.933643,63 138.013863,63 L90.2542142,63 L86.7293745,63 L38.9697365,63 Z" id="path3780" fill="#FFFFFF" fill-rule="nonzero"></path>
            <path d="M129,250.341242 C128.8899,250.513487 128.77646,250.687795 128.165423,251 C119.607646,246.509877 92.9808381,238.893383 97.5157983,209.029003 L106.836336,209 C98.1141857,219.068916 103.69785,238.752844 129,250.341249 L129,250.341242 Z" id="path3819" fill="#FFFFFF" fill-rule="nonzero"></path>
            <path d="M56.9999993,102.5 C57.0013495,106.250839 55.0003562,109.717334 51.7510906,111.593143 C48.5018251,113.468952 44.4981749,113.468952 41.2489094,111.593143 C37.9996438,109.717334 35.9986505,106.250839 36.0000007,102.5 C35.9986505,98.7491613 37.9996438,95.2826659 41.2489094,93.4068568 C44.4981749,91.5310477 48.5018251,91.5310477 51.7510906,93.4068568 C55.0003562,95.2826659 57.0013495,98.7491613 56.9999993,102.5 Z" id="path3868"></path>
            <path d="M37,103 C37,105.209139 35.209139,107 33,107 C30.790861,107 29,105.209139 29,103 C29,100.790861 30.790861,99 33,99 C35.209139,99 37,100.790861 37,103 Z" id="path3870"></path>
            <path d="M65,103 C65,105.209139 63.209139,107 61,107 C58.790861,107 57,105.209139 57,103 C57,100.790861 58.790861,99 61,99 C63.209139,99 65,100.790861 65,103 Z" id="path3872"></path>
            <path d="M84.9999993,102.5 C85.0013495,106.250839 83.0003562,109.717334 79.7510906,111.593143 C76.5018251,113.468952 72.4981749,113.468952 69.2489094,111.593143 C65.9996438,109.717334 63.9986505,106.250839 64.0000007,102.5 C63.9986505,98.7491613 65.9996438,95.2826659 69.2489094,93.4068568 C72.4981749,91.5310477 76.5018251,91.5310477 79.7510906,93.4068568 C83.0003562,95.2826659 85.0013495,98.7491613 84.9999993,102.5 Z" id="path3874"></path>
            <path d="M93,103 C93,105.209139 91.209139,107 89,107 C86.790861,107 85,105.209139 85,103 C85,100.790861 86.790861,99 89,99 C91.209139,99 93,100.790861 93,103 Z" id="path3876"></path>
            <path d="M112.999999,102.5 C113.001349,106.250839 111.000356,109.717334 107.751091,111.593143 C104.501825,113.468952 100.498175,113.468952 97.2489094,111.593143 C93.9996438,109.717334 91.9986505,106.250839 92.0000007,102.5 C91.9986505,98.7491613 93.9996438,95.2826659 97.2489094,93.4068568 C100.498175,91.5310477 104.501825,91.5310477 107.751091,93.4068568 C111.000356,95.2826659 113.001349,98.7491613 112.999999,102.5 Z" id="path3878"></path>
            <path d="M121,103 C121,105.209139 119.209139,107 117,107 C114.790861,107 113,105.209139 113,103 C113,100.790861 114.790861,99 117,99 C119.209139,99 121,100.790861 121,103 Z" id="path3880"></path>
            <path d="M140.999999,102.5 C141.001349,106.250839 139.000356,109.717334 135.751091,111.593143 C132.501825,113.468952 128.498175,113.468952 125.248909,111.593143 C121.999644,109.717334 119.998651,106.250839 120.000001,102.5 C119.998651,98.7491613 121.999644,95.2826659 125.248909,93.4068568 C128.498175,91.5310477 132.501825,91.5310477 135.751091,93.4068568 C139.000356,95.2826659 141.001349,98.7491613 140.999999,102.5 Z" id="path3882"></path>
            <path d="M149,103 C149,105.209139 147.209139,107 145,107 C142.790861,107 141,105.209139 141,103 C141,100.790861 142.790861,99 145,99 C147.209139,99 149,100.790861 149,103 Z" id="path3884"></path>
            <path d="M151,95 L150.701564,110 C147.917862,106.993921 146.24313,100.170511 151,95 Z" id="path3892"></path>
            <path d="M26,95 L26.2984364,110 C29.082138,106.993921 30.7568704,100.170511 26,95 Z" id="path3894"></path>
            <path d="M25.4753254,113 C22.0846615,113 22.2663719,117.921018 25.4753254,117.921018 L81.8749689,117.980277 L81.8749689,118 L87.7365965,118 L93.6474752,118 L93.6474752,117.980277 L150.047134,117.921018 C155.139747,117.921018 155.492546,113 150.047134,113 L93.6474752,113 L81.8749689,113 L25.4753254,113 Z" id="path3896" fill="#FFFFFF" fill-rule="nonzero"></path>
            <path d="M25.4753254,86 C22.0846615,86 22.2663719,90.9210184 25.4753254,90.9210184 L81.8749689,90.9802771 L81.8749689,91 L87.7365965,91 L93.6474752,91 L93.6474752,90.9802771 L150.047134,90.9210184 C155.139747,90.9210184 155.492546,86 150.047134,86 L93.6474752,86 L81.8749689,86 L25.4753254,86 Z" id="path3898" fill="#FFFFFF" fill-rule="nonzero"></path>
            <path d="M58.2263039,124 C59.7037152,128.63061 59.2463328,132.589224 54.0747248,134.91564 C53.1627629,159.345007 60.8016944,179.196253 65.8832373,200.41843 L68.0962275,201 C63.0250814,179.282523 55.2055384,158.93063 55.7212178,135.801418 C59.9951928,133.880244 61.5036206,130.553374 60.0852134,125.583663 L87.9422905,125.71787 L87.9422905,125.726815 L88.4999681,125.726815 L89.0576384,125.726815 L89.0576384,125.71787 L116.914719,125.583663 C115.496308,130.553374 117.004725,133.880244 121.27873,135.801418 C121.794379,158.93063 113.974851,179.282523 108.903705,201 L111.125544,200.41843 C116.20708,179.196253 123.837181,159.345007 122.925193,134.91564 C117.753615,132.589224 117.296217,128.63061 118.773629,124 L88.986823,124 L88.0131096,124 L58.2263039,124 Z" id="path3905" fill="#FFFFFF" fill-rule="nonzero"></path>
            <path d="M122.873439,198.80039 C130.711448,177.437975 139.488054,156.379054 137.786116,131.931848 C137.112001,124.872664 127.746886,125.857863 129.208901,131.931848 C133.43743,155.046565 124.349426,176.892856 118,199" id="path3916"></path>
            <path d="M54.1265605,198.80039 C46.2885524,177.437975 37.5119463,156.379054 39.213884,131.931848 C39.8879988,124.872664 49.2531138,125.857863 47.7910989,131.931848 C43.56257,155.046565 52.6505702,176.892856 59,199" id="path3914"></path>
            <path d="M85.6223069,173.199843 L83.8431853,173.12893 L85.0498159,175.708302 L85.6927619,178.784048 L84.2659487,178.925874 L82.4868235,177.995168 L79.8533723,175.921036 L77.2199249,178.216765 L77.7219534,180.937955 L78.7172004,181.868657 L81.421114,184.013697 L78.2856306,184.944403 L76.0837493,183.366643 L75.0884986,182.657538 L74.5160039,183.224821 L70.1034386,179.502016 L70.1738973,185.015312 L69.3900265,184.802582 L70.0329725,188.454474 L69.1786466,188.74698 L69.319564,192.177275 L67.6813673,192.753428 L63.4097157,190.466559 L63.3392533,195.120062 L64.6251527,197.983081 L62.2735402,198.053987 L59.7105478,196.768732 L59.5696303,195.261884 L57.8609675,193.471396 L54.9456925,194.189364 L54.9456925,191.893635 L56.3636919,191.46817 L57.4382077,191.822723 L57.4382077,190.466559 L55.5093771,189.456085 L53.4483799,191.680904 L53.5188424,189.677682 L51.1760695,187.9581 L49.8901405,188.888798 L51.0263272,190.386787 L51.0263272,192.327963 L49.5378358,191.609992 L48.9653633,189.456085 L49.1767432,186.876713 L47.9701237,184.944403 L47.0453206,183.446414 L45.1957366,181.505242 L45.1957366,183.942788 L45.1252816,185.015312 L43.9802996,185.165997 L39.3563285,176.851735 L39.0744899,177.924255 L38,176.639004 L38,179.936344 L41.7784183,184.873491 L41.7079596,186.451251 L47.0453206,192.611607 L47.6090052,195.474615 L59.5696303,203 L84.486135,203 L89.0043958,192.939567 L93.5226603,203 L118.430355,203 L130.390987,195.474615 L130.963471,192.611607 L136.300836,186.451251 L136.230377,184.873491 L140,179.936344 L140,176.639004 L138.934291,177.924255 L138.643642,176.851735 L134.019689,185.165997 L132.883514,185.015312 L132.813055,183.942788 L132.813055,181.505242 L130.963471,183.446414 L130.038686,184.944403 L128.823246,186.876713 L129.034622,189.456085 L128.470941,191.609992 L126.973665,192.327963 L126.973665,190.386787 L128.109834,188.888798 L126.832741,187.9581 L124.481132,189.677682 L124.55159,191.680904 L122.49063,189.456085 L120.570588,190.466559 L120.570588,191.822723 L121.636297,191.46817 L123.063121,191.893635 L123.063121,194.189364 L120.139018,193.471396 L118.430355,195.261884 L118.289434,196.768732 L115.726445,198.053987 L113.374836,197.983081 L114.660732,195.120062 L114.590273,190.466559 L110.318622,192.753428 L108.680421,192.177275 L108.821342,188.74698 L107.967009,188.454474 L108.609959,184.802582 L107.826092,185.015312 L107.896547,179.502016 L103.483978,183.224821 L102.920297,182.657538 L101.916236,183.366643 L99.7143546,184.944403 L96.5788749,184.013697 L99.2827884,181.868657 L100.286846,180.937955 L100.780068,178.216765 L98.1466129,175.921036 L95.5131617,177.995168 L93.7340439,178.925874 L92.3072196,178.784048 L92.9501693,175.708302 L94.1656137,173.12893 L92.3864847,173.199843 C91.637347,172.652636 89.1427246,170.139213 89.0043958,170 C88.8647041,170.140588 86.6217127,172.255008 85.6223069,173.199843 Z" id="path3900" fill="#FFFFFF" fill-rule="nonzero"></path>
            <path d="M60.4614609,203 C55.7770906,203 55.9157897,208.905206 60.4614609,208.905206 L85.8502489,208.976316 L85.8502489,209 L88.4889126,209 L91.1497497,209 L91.1497497,208.976316 L116.538538,208.905206 C121.084213,208.905206 121.222908,203 116.538538,203 L91.1497497,203 L85.8502489,203 L60.4614609,203 Z" id="path3760" fill="#FFFFFF" fill-rule="nonzero"></path>
            <path d="M55.6243381,17 C55.6243381,30.55787 57.6090468,44.2275757 52.4546469,57.8986128 C50.8586497,61.8146277 45.5071128,59.6355707 47.4001139,56.4183061 C53.8171544,43.9444693 52.1837885,30.9116337 52.1837885,17.0380832" id="path3918"></path>
            <path d="M65.6243381,17 C65.6243381,30.55787 67.6090468,44.2275757 62.4546469,57.8986128 C60.8586497,61.8146277 55.5071128,59.6355707 57.4001139,56.4183061 C63.8171544,43.9444693 62.1837885,30.9116337 62.1837885,17.0380832" id="path3922"></path>
            <path d="M74.6243384,17 C74.6243384,30.55787 76.6090471,44.2275757 71.4546434,57.8986128 C69.8586462,61.8146277 64.507113,59.6355707 66.4001142,56.4183061 C72.8171509,43.9444693 71.1837851,30.9116337 71.1837851,17.0380832" id="path3924"></path>
            <path d="M84.6243381,17 C84.6243381,30.55787 86.6090467,44.2275757 81.454647,57.8986128 C79.8586461,61.8146277 74.507113,59.6355707 76.4001141,56.4183061 C82.8171507,43.9444693 81.1837849,30.9116337 81.1837849,17.0380832" id="path3926"></path>
            <path d="M121.375662,17 C121.375662,30.55787 119.390953,44.2275757 124.545353,57.8986128 C126.14135,61.8146277 131.492887,59.6355707 129.599886,56.4183061 C123.182846,43.9444693 124.816211,30.9116337 124.816211,17.0380832" id="path3928"></path>
            <path d="M112.375663,17 C112.375663,30.55787 110.390951,44.2275757 115.545354,57.8986128 C117.141351,61.8146277 122.492885,59.6355707 120.599887,56.4183061 C114.182847,43.9444693 115.816213,30.9116337 115.816213,17.0380832" id="path3930"></path>
            <path d="M103.375662,17 C103.375662,30.55787 101.390953,44.2275757 106.545353,57.8986128 C108.141354,61.8146277 113.492887,59.6355707 111.599886,56.4183061 C105.182849,43.9444693 106.816215,30.9116337 106.816215,17.0380832" id="path3932"></path>
            <path d="M93.3756619,17 C93.3756619,30.55787 91.3909532,44.2275757 96.5453531,57.8986128 C98.1413503,61.8146277 103.492887,59.6355707 101.599886,56.4183061 C95.1828456,43.9444693 96.8162115,30.9116337 96.8162115,17.0380832" id="path3934"></path>
            <path d="M43.738396,7.30438492e-16 C41.357166,7.30438492e-16 41.4847814,3.93682031 43.738396,3.93682031 L83.3473073,3.98422636 L83.3473073,4 L87.4638705,4 L91.6150251,4 L91.6150251,3.98422636 L131.22394,3.93682031 C134.800433,3.93682031 135.048201,0 131.22394,0 L91.6150251,0 L83.3473073,0 L43.738396,7.30438492e-16 Z" id="path3936" fill="#FFFFFF" fill-rule="nonzero"></path>
            <path d="M42.5807689,4 C39.3023216,4 39,9.99201057 39,12.7697858 C39,16.8248207 42.298591,19.1670672 44.4444457,17.8890943 C47.1955208,19.309575 49.6469934,19.0982569 51.9200843,17.8890943 C54.6976662,19.3362108 57.6996069,19.4040052 60.9557685,17.8890943 C63.8582005,19.1942285 66.8853975,19.3791839 70.1066249,17.8890943 C73.1031902,19.1415166 76.2649632,19.4282426 79.739102,17.8890943 C82.63075,19.1846828 85.3945624,19.3081958 88,18.0942985 C90.6054376,19.3081958 93.3587805,19.1846828 96.2504285,17.8890943 C99.7245673,19.4282426 102.88634,19.1415166 105.882906,17.8890943 C109.104133,19.3791839 112.13133,19.1942285 115.033762,17.8890943 C118.289924,19.4040052 121.291864,19.3362108 124.069446,17.8890943 C126.342533,19.0982569 128.804479,19.309575 131.555554,17.8890943 C133.701405,19.1670672 137,16.8248207 137,12.7697858 C137,9.99201057 136.687209,4 133.408762,4 L88.2931617,4 L87.6963687,4 L42.5807689,4 Z" id="path3938" fill="#FFFFFF" fill-rule="nonzero"></path>
            <path d="M45.3150383,17 C44.8350432,13.2376335 44.7889388,9.5338892 46,6" id="path3943" fill="#FFFFFF" fill-rule="nonzero"></path>
            <path d="M52.3162995,17 C51.8447848,13.2709801 51.7735788,9.57764769 53,6" id="path3945" fill="#FFFFFF" fill-rule="nonzero"></path>
            <path d="M62.1743388,17 C61.7760308,13.2554083 62.0639322,9.59020854 63,6" id="path3947" fill="#FFFFFF" fill-rule="nonzero"></path>
            <path d="M71.0771194,17 C70.8322393,13.3739674 71.1787304,9.70444238 72,6" id="path3949" fill="#FFFFFF" fill-rule="nonzero"></path>
            <path d="M80.0817306,17 C79.9156262,13.4746013 79.9073406,9.53352426 81,6" id="path3951" fill="#FFFFFF" fill-rule="nonzero"></path>
            <path d="M132.684962,17 C133.164957,13.2376335 133.211061,9.5338892 132,6" id="path3955" fill="#FFFFFF" fill-rule="nonzero"></path>
            <path d="M124.6837,17 C125.155215,13.2709801 125.226422,9.57764769 124,6" id="path3957" fill="#FFFFFF" fill-rule="nonzero"></path>
            <path d="M115.825661,17 C116.223969,13.2554083 115.93607,9.59020854 115,6" id="path3959" fill="#FFFFFF" fill-rule="nonzero"></path>
            <path d="M106.922881,17 C107.167761,13.3739674 106.82127,9.70444238 106,6" id="path3961" fill="#FFFFFF" fill-rule="nonzero"></path>
            <path d="M96.9182694,17 C97.0843738,13.4746013 97.0926594,9.53352426 96,6" id="path3963" fill="#FFFFFF" fill-rule="nonzero"></path>
        </g>
    </g>
</svg>