<?xml version="1.0" encoding="iso-8859-1"?>
<!-- Generator: Adobe Illustrator 17.1.0, SVG Export Plug-In . SVG Version: 6.00 Build 0)  -->
<!DOCTYPE svg PUBLIC "-//W3C//DTD SVG 1.1//EN" "http://www.w3.org/Graphics/SVG/1.1/DTD/svg11.dtd">
<svg xmlns="http://www.w3.org/2000/svg" xmlns:xlink="http://www.w3.org/1999/xlink" version="1.1" id="Capa_1" x="0px" y="0px" viewBox="0 0 235.421 235.421" style="enable-background:new 0 0 235.421 235.421;" xml:space="preserve" width="512px" height="512px">
<path d="M227.711,227.921c0,4.142-3.358,7.5-7.5,7.5h-205c-4.142,0-7.5-3.358-7.5-7.5v-16c0-4.142,3.358-7.5,7.5-7.5h205  c4.142,0,7.5,3.358,7.5,7.5V227.921z M219.517,105.336c-3.281-0.893-6.758,0.531-8.464,3.477l-13.883,23.97  c-0.586,1.011-1.841,1.639-3.009,1.639c-1.811,0-3.451-1.474-3.451-3.284V63.721c0-3.344-2.047-6.284-5.262-7.208  c-3.215-0.922-6.567,0.393-8.344,3.226l-18.746,29.984c0.09,2.052,0.164,4.117,0.164,6.198c0,18.771-3.703,36.536-10.447,50.023  c-7.569,15.139-18.234,23.477-30.038,23.477s-22.471-8.338-30.04-23.477c-6.743-13.487-10.456-31.252-10.456-50.023  c0-1.827,0.046-3.64,0.116-5.445l-19.26-30.737c-1.78-2.843-5.233-4.158-8.45-3.219c-3.22,0.937-5.427,3.896-5.405,7.249  l0.431,67.348c0.008,1.188-0.595,1.974-0.954,2.336c-0.359,0.361-1.141,0.969-2.329,0.969h-0.339c-1.185,0-2.281-0.642-2.862-1.675  l-13.409-23.851c-1.665-2.962-5.114-4.429-8.409-3.587c-3.292,0.849-5.602,3.806-5.628,7.205l-0.5,65.35  c-0.015,1.999,0.769,3.922,2.177,5.341s3.324,2.217,5.323,2.217h199c4.12,0,7.469-3.323,7.5-7.442l0.5-65.35  C225.069,109.226,222.8,106.232,219.517,105.336z M128.108,42.71c0.09-0.078,0.185-0.152,0.273-0.232  c1.216-1.099,2.249-2.384,3.063-3.794c0.163-0.282,0.317-0.569,0.462-0.861c0.29-0.583,0.544-1.185,0.761-1.801  c0.13-0.369,0.241-0.745,0.342-1.124c0.153-0.569,0.278-1.147,0.365-1.733c0.097-0.651,0.152-1.311,0.164-1.976  c0.047-2.66-0.605-5.4-2.094-7.979L118.044,0l-13.401,23.211c-1.489,2.579-2.14,5.319-2.094,7.979  c0.012,0.665,0.067,1.325,0.164,1.976c0.087,0.586,0.213,1.164,0.365,1.733c0.102,0.379,0.213,0.755,0.342,1.124  c0.216,0.616,0.47,1.218,0.761,1.801c0.145,0.292,0.299,0.579,0.462,0.861c0.814,1.41,1.847,2.695,3.063,3.794  c0.088,0.08,0.183,0.154,0.273,0.231c-8.432,8.889-15.436,28.325-15.436,53.211c0,34.475,13.438,58.5,25.5,58.5  s25.5-24.025,25.5-58.5C143.544,71.035,136.54,51.6,128.108,42.71z" fill="#FFFFFF"/>
<g>
</g>
<g>
</g>
<g>
</g>
<g>
</g>
<g>
</g>
<g>
</g>
<g>
</g>
<g>
</g>
<g>
</g>
<g>
</g>
<g>
</g>
<g>
</g>
<g>
</g>
<g>
</g>
<g>
</g>
</svg>
