<?xml version="1.0" encoding="iso-8859-1"?>
<!-- Generator: Adobe Illustrator 17.1.0, SVG Export Plug-In . SVG Version: 6.00 Build 0)  -->
<!DOCTYPE svg PUBLIC "-//W3C//DTD SVG 1.1//EN" "http://www.w3.org/Graphics/SVG/1.1/DTD/svg11.dtd">
<svg xmlns="http://www.w3.org/2000/svg" xmlns:xlink="http://www.w3.org/1999/xlink" version="1.1" id="Capa_1" x="0px" y="0px" viewBox="0 0 206.5 206.5" style="enable-background:new 0 0 206.5 206.5;" xml:space="preserve" width="512px" height="512px">
<path d="M179.622,74.93c4.88-1.721,7.687-6.939,6.322-12.021c-0.192-0.715-0.393-1.428-0.603-2.136  c-1.492-5.042-6.601-8.021-11.665-6.943c4.193-3.028,5.411-8.823,2.67-13.312c-0.386-0.632-0.779-1.258-1.182-1.879  c-2.854-4.411-8.598-5.827-13.142-3.37c3.167-4.084,2.707-9.983-1.182-13.52c-0.547-0.497-1.1-0.987-1.659-1.471  c-3.979-3.439-9.896-3.184-13.568,0.456c1.902-4.813-0.197-10.354-4.929-12.657c-0.666-0.324-1.337-0.64-2.014-0.948  c-4.789-2.18-10.403-0.265-12.899,4.274c0.465-5.156-3.117-9.879-8.308-10.75c-0.729-0.122-1.464-0.235-2.2-0.339  c-5.206-0.737-10.031,2.679-11.152,7.721c-1.009-5.066-5.761-8.583-10.981-7.967c-0.736,0.087-1.47,0.184-2.199,0.289  c-5.204,0.752-8.89,5.384-8.55,10.543c-2.396-4.579-7.949-6.615-12.782-4.552c-0.685,0.292-1.363,0.594-2.038,0.904  c-4.774,2.194-6.996,7.675-5.216,12.524c-3.592-3.714-9.497-4.095-13.55-0.746c-0.567,0.469-1.13,0.945-1.686,1.429  c-3.968,3.449-4.559,9.338-1.48,13.492c-4.495-2.568-10.278-1.277-13.23,3.08c-0.412,0.608-0.817,1.221-1.215,1.84  c-2.848,4.428-1.759,10.257,2.372,13.38c-5.042-1.201-10.226,1.668-11.831,6.681c-0.226,0.704-0.442,1.412-0.65,2.124  c-1.473,5.047,1.214,10.321,6.049,12.151c-5.161,0.282-9.317,4.495-9.44,9.75c-0.017,0.702-0.025,1.406-0.025,2.112v0.085  c0,5.291,4.109,9.583,9.312,9.935c-4.938,1.675-7.799,6.915-6.442,12.03c0.191,0.721,0.393,1.439,0.603,2.152  c1.486,5.045,6.596,8.033,11.659,6.958c-4.2,3.027-5.422,8.827-2.679,13.319c0.383,0.627,0.772,1.25,1.171,1.866  c2.848,4.418,8.588,5.841,13.14,3.39c-3.169,4.077-2.72,9.971,1.159,13.513c0.55,0.502,1.106,0.996,1.669,1.483  c1.416,1.225,3.079,1.973,4.798,2.276L41.411,187.54c-0.381,1.271-0.242,2.64,0.387,3.807c0.629,1.168,1.695,2.038,2.966,2.418  l41.752,12.522c0.479,0.144,0.963,0.212,1.438,0.212c2.15,0,4.138-1.399,4.787-3.565l10.509-35.041l10.509,35.041  c0.649,2.166,2.637,3.565,4.787,3.565c0.476,0,0.959-0.068,1.438-0.212l41.752-12.522c1.271-0.381,2.337-1.25,2.966-2.418  c0.629-1.167,0.768-2.537,0.387-3.807l-10.406-34.695c1.04-0.378,2.037-0.926,2.94-1.669c0.573-0.472,1.14-0.95,1.699-1.436  c3.968-3.445,4.563-9.331,1.492-13.486c4.483,2.566,10.261,1.291,13.221-3.052c0.419-0.615,0.829-1.234,1.231-1.859  c2.848-4.424,1.765-10.25-2.36-13.375c5.043,1.206,10.234-1.66,11.842-6.676c0.225-0.7,0.441-1.404,0.649-2.112  c1.48-5.046-1.201-10.326-6.037-12.162c5.158-0.276,9.319-4.479,9.453-9.731c0.019-0.737,0.028-1.476,0.028-2.216v-0.169  C188.842,79.64,184.78,75.328,179.622,74.93z M103.251,151.706c-36.743,0-66.637-29.893-66.637-66.636s29.894-66.636,66.637-66.636  s66.636,29.893,66.636,66.636S139.994,151.706,103.251,151.706z M103.251,28.434c-31.229,0-56.637,25.407-56.637,56.636  c0,31.229,25.407,56.636,56.637,56.636s56.636-25.407,56.636-56.636C159.886,53.841,134.48,28.434,103.251,28.434z M117.631,120.167  H88.87c-2.762,0-5-2.239-5-5s2.238-5,5-5H99.09V67.044l-6.686,6.686c-1.951,1.952-5.119,1.952-7.07,0  c-1.953-1.953-1.953-5.119,0-7.071l15.221-15.221c1.43-1.43,3.583-1.856,5.448-1.084c1.869,0.774,3.087,2.597,3.087,4.62v55.194  h8.54c2.762,0,5,2.239,5,5S120.392,120.167,117.631,120.167z" fill="#FFFFFF"/>
<g>
</g>
<g>
</g>
<g>
</g>
<g>
</g>
<g>
</g>
<g>
</g>
<g>
</g>
<g>
</g>
<g>
</g>
<g>
</g>
<g>
</g>
<g>
</g>
<g>
</g>
<g>
</g>
<g>
</g>
</svg>
