<?xml version="1.0" encoding="UTF-8"?>
<svg width="115px" height="143px" viewBox="0 0 115 143" version="1.1" xmlns="http://www.w3.org/2000/svg" xmlns:xlink="http://www.w3.org/1999/xlink">
    <!-- Generator: Sketch 48.2 (47327) - http://www.bohemiancoding.com/sketch -->
    <title>Nobel_prize_winner</title>
    <desc>Created with Sketch.</desc>
    <defs></defs>
    <g id="Artboard-2" stroke="none" stroke-width="1" fill="none" fill-rule="evenodd" transform="translate(-593.000000, -4.000000)">
        <g id="Nobel_prize_winner" transform="translate(568.000000, 0.000000)">
            <path d="M27.018432,129.63068 C28.224155,124.3533 29.926316,118.90029 33.382575,114.56904 C37.968687,107.63563 40.871967,99.60431 46.121197,93.099788 C49.228753,89.828237 62.39833,91.476432 58.273895,84.61775 C52.938961,80.835893 45.725092,81.476903 39.507032,80.079817 C32.77175,76.722906 38.344658,69.297735 37.357008,63.985444 C35.702314,60.103403 37.64548,55.814278 34.400792,52.788749 C34.529894,46.260778 44.173845,43.577588 41.641458,36.485796 C38.742452,29.529081 45.739331,25.550116 49.048786,20.521683 C54.188757,17.264414 53.975087,9.164547 60.089239,7.6835097 C68.880042,7.3305177 77.719713,7.2976057 86.516114,7.5896257 C95.74655,9.688827 104.72221,15.645846 108.17766,24.603104 C110.89964,30.984732 109.52783,38.29039 109.70793,45.051746 C110.03913,52.349816 106.59822,59.205163 102.21825,64.867921 C98.085415,71.740552 105.81245,76.539183 108.63222,82.000303 C112.91737,87.259144 118.98797,90.921204 124.02724,95.501387 C128.20229,100.38677 133.686,103.74979 138.51244,107.89197 C132.62119,117.04007 125.8164,126.02188 116.52423,132.19821 C103.98399,141.23603 88.571505,146.25329 72.985452,146.02736 C56.359401,146.28556 39.763093,139.9751 27.018432,129.63068 Z" id="path4972" fill="#FFFFFF"></path>
            <path d="M26.766495,131.46381 C28.280367,124.53134 30.981101,117.90003 35.235315,112.18581 C38.877324,105.73677 41.722445,98.719926 46.354867,92.899828 C49.602594,89.894339 55.951537,91.726131 58.682205,88.275072 C59.035457,87.828626 59.4965,87.344923 59.610827,87.099184 C59.683276,86.943457 59.845924,86.381232 59.666456,86.087717 M101.14139,69.052734 C102.12636,74.57418 109.14203,82.369125 109.73844,83.209044 C110.57028,84.220523 124.03474,95.67126 124.85126,96.273582 C125.15259,96.782675 134.76324,103.97012 139.12341,108.69602 M55.27873,10.253402 C57.397892,5.5289421 65.102096,6.1765388 70.141394,5.802738 C78.379402,6.1871131 88.563203,5.2693279 94.850757,8.7522758 C100.75944,11.680536 110.36882,22.746318 109.8485,32.802738 C109.82091,41.721998 110.74186,51.445262 105.64139,59.302738 C103.45075,62.443858 101.27815,65.210945 101.14139,69.302738 M55.391396,10.052738 C53.099308,15.360291 48.641014,19.464643 45.060026,23.962233 C38.943671,27.947858 42.653089,34.92004 41.611064,40.595628 C38.9269,44.976484 30.642113,50.498426 36.593659,55.464185 C36.124808,61.242087 39.114192,67.013225 36.080734,72.625958 C34.574925,80.626702 43.585865,79.952087 48.52542,81.247864 C52.499929,81.952894 57.732669,81.998224 59.747102,86.256971" id="path2245" stroke="#FFFFFF" stroke-width="2"></path>
        </g>
    </g>
</svg>