<?xml version="1.0" encoding="iso-8859-1"?>
<!-- Generator: Adobe Illustrator 17.1.0, SVG Export Plug-In . SVG Version: 6.00 Build 0)  -->
<!DOCTYPE svg PUBLIC "-//W3C//DTD SVG 1.1//EN" "http://www.w3.org/Graphics/SVG/1.1/DTD/svg11.dtd">
<svg xmlns="http://www.w3.org/2000/svg" xmlns:xlink="http://www.w3.org/1999/xlink" version="1.1" id="Capa_1" x="0px" y="0px" viewBox="0 0 202.111 202.111" style="enable-background:new 0 0 202.111 202.111;" xml:space="preserve" width="512px" height="512px">
<path d="M26.129,153.148c2.929,2.929,2.929,7.678,0,10.606l-6.585,6.586c-1.407,1.407-3.314,2.197-5.304,2.197  c-0.013,0-0.026-0.002-0.039-0.002c-0.013,0-0.026,0.002-0.038,0.002c-2.382,0-4.501-1.114-5.875-2.846l-6.092-6.093  c-2.929-2.929-2.928-7.678,0-10.606c1.251-1.251,2.835-1.962,4.466-2.145V22.57c-1.632-0.182-3.215-0.894-4.467-2.146  c-2.929-2.929-2.928-7.678,0-10.606l6.585-6.585c1.473-1.473,3.407-2.203,5.338-2.194c0.014,0,0.028-0.002,0.043-0.002  c2.381,0,4.499,1.113,5.873,2.844l6.093,6.093c2.929,2.929,2.929,7.678,0,10.606c-1.251,1.251-2.835,1.964-4.467,2.146v128.278  C23.294,151.185,24.878,151.897,26.129,153.148z M202.111,186.834c0-1.989-0.79-3.897-2.197-5.304l-6.585-6.585  c-2.93-2.928-7.677-2.929-10.607,0.001c-1.251,1.251-1.963,2.834-2.145,4.466H52.299c-0.182-1.632-0.894-3.215-2.146-4.467  c-2.929-2.928-7.678-2.928-10.606,0l-6.095,6.095c-1.729,1.374-2.842,3.491-2.842,5.872c0,0.013,0.002,0.025,0.002,0.038  c0,0.013-0.002,0.026-0.002,0.039c0,1.989,0.79,3.897,2.197,5.304l6.585,6.585c1.465,1.464,3.384,2.196,5.303,2.196  s3.839-0.732,5.304-2.197c1.251-1.251,1.962-2.834,2.145-4.465h128.278c0.182,1.631,0.894,3.215,2.145,4.466  c1.464,1.464,3.384,2.196,5.303,2.196s3.839-0.732,5.303-2.196l6.091-6.091c1.732-1.374,2.846-3.492,2.846-5.875  c0-0.013-0.002-0.026-0.002-0.039C202.109,186.86,202.111,186.847,202.111,186.834z M194.611,64.285h-52.767V8.536  c0-4.143-3.358-7.5-7.5-7.5H44.851c-4.142,0-7.5,3.357-7.5,7.5v147.732c0,4.143,3.358,7.5,7.5,7.5h149.76c4.142,0,7.5-3.357,7.5-7.5  V71.785C202.111,67.643,198.753,64.285,194.611,64.285z" fill="#FFFFFF"/>
<g>
</g>
<g>
</g>
<g>
</g>
<g>
</g>
<g>
</g>
<g>
</g>
<g>
</g>
<g>
</g>
<g>
</g>
<g>
</g>
<g>
</g>
<g>
</g>
<g>
</g>
<g>
</g>
<g>
</g>
</svg>
