<?xml version="1.0" encoding="iso-8859-1"?>
<!-- Generator: Adobe Illustrator 19.0.0, SVG Export Plug-In . SVG Version: 6.00 Build 0)  -->
<svg xmlns="http://www.w3.org/2000/svg" xmlns:xlink="http://www.w3.org/1999/xlink" version="1.1" id="Capa_1" x="0px" y="0px" viewBox="0 0 512.001 512.001" style="enable-background:new 0 0 512.001 512.001;" xml:space="preserve" width="512px" height="512px">
<g>
	<g>
		<path d="M436,361c-15.26,0-29.436,4.634-41.294,12.495l-33.699-33.699C379.484,316.699,391,287.813,391,256    c0-14.26-2.825-27.746-6.942-40.659l30.544-16.97C424.731,206.172,437.255,211,451,211c33.091,0,61-26.909,61-60s-27.909-60-61-60    s-60,26.909-60,60c0,8.339,1.725,16.276,4.812,23.5l-23.963,13.314c-21.07-35.652-57.794-60.454-100.849-65.297v-35.28    C288.422,81.024,301,64.53,301,45c0-24.814-20.186-45-45-45c-24.814,0-45,20.186-45,45c0,19.53,12.578,36.024,30,42.237v35.279    c-29.522,3.322-56.146,15.811-76.787,35.072l-49.739-41.774C117.945,108.23,120,99.873,120,91c0-33.091-26.909-60-60-60    S0,57.909,0,91s26.909,60,60,60c13.348,0,25.569-4.526,35.544-11.924l48.902,41.058C129.682,201.775,121,227.88,121,256    c0,26.854,8.093,51.762,21.663,72.81l-16.646,13.68C116.139,335.338,104.104,331,91,331c-33.091,0-60,26.909-60,60    s26.909,60,60,60s60-26.909,60-60c0-9.115-2.199-17.668-5.85-25.411l16.339-13.425c20.973,20.616,48.757,33.862,79.512,37.321    v34.279c-17.422,6.213-30,22.707-30,42.237c0,24.814,20.186,46,45,46c24.814,0,45-21.186,45-46c0-19.53-12.578-36.024-30-42.237    v-34.279c25.908-2.915,49.429-12.984,68.796-28.477l33.699,33.699C365.635,406.564,361,420.74,361,436c0,41.353,33.647,76,75,76    c41.353,0,76-34.647,76-76C512,394.647,477.354,361,436,361z" fill="#FFFFFF"/>
	</g>
</g>
<g>
</g>
<g>
</g>
<g>
</g>
<g>
</g>
<g>
</g>
<g>
</g>
<g>
</g>
<g>
</g>
<g>
</g>
<g>
</g>
<g>
</g>
<g>
</g>
<g>
</g>
<g>
</g>
<g>
</g>
</svg>
