<?xml version="1.0" encoding="UTF-8"?>
<svg width="700px" height="790px" viewBox="0 0 700 790" version="1.1" xmlns="http://www.w3.org/2000/svg" xmlns:xlink="http://www.w3.org/1999/xlink">
    <!-- Generator: Sketch 55.2 (78181) - https://sketchapp.com -->
    <title>Artboard</title>
    <desc>Created with Sketch.</desc>
    <g id="Artboard" stroke="none" stroke-width="1" fill="none" fill-rule="evenodd">
        <path d="M261.955732,191.047093 L261.955732,191.047093 C259.219312,188.317636 254.787082,188.317636 252.050662,191.047093 L252.050662,191.047093 C249.58403,193.507448 249.314242,198.120615 251.395463,200.926958 L256.983927,209 L262.572391,200.926958 C264.692153,198.120615 264.422365,193.507448 261.955732,191.047093 Z" id="SF-Huechuraba" fill="#7B64AC" fill-rule="nonzero"></path>
        <path d="M164.955732,272.047093 L164.955732,272.047093 C162.219312,269.317636 157.787082,269.317636 155.050662,272.047093 L155.050662,272.047093 C152.58403,274.507448 152.314242,279.120615 154.395463,281.926958 L159.983927,290 L165.572391,281.926958 C167.692153,279.120615 167.422365,274.507448 164.955732,272.047093 Z" id="Renca" fill="#7B64AC" fill-rule="nonzero"></path>
        <path d="M224.955732,370.047093 L224.955732,370.047093 C222.219312,367.317636 217.787082,367.317636 215.050662,370.047093 L215.050662,370.047093 C212.58403,372.507448 212.314242,377.120615 214.395463,379.926958 L219.983927,388 L225.572391,379.926958 C227.692153,377.120615 227.422365,372.507448 224.955732,370.047093 Z" id="Frings-College" fill="#7B64AC" fill-rule="nonzero"></path>
    </g>
</svg>