<?xml version="1.0" encoding="UTF-8"?>
<svg width="535px" height="375px" viewBox="0 0 535 375" version="1.1" xmlns="https://www.w3.org/2000/svg" xmlns:xlink="https://www.w3.org/1999/xlink">
    <!-- Generator: Sketch 55.2 (78181) - https://sketchapp.com -->
    <title>Artboard Copy</title>
    <desc>Created with Sketch.</desc>
    <g id="Artboard-Copy" stroke="none" stroke-width="1" fill="none" fill-rule="evenodd">
        <g id="Group" transform="translate(51.000000, 35.000000)">
            <rect id="Rectangle" fill="#F92831" x="0" y="19" width="15" height="15"></rect>
            <rect id="Rectangle-Copy" fill="#FAE606" x="20" y="11" width="15" height="15"></rect>
            <rect id="Rectangle-Copy-2" fill="#197A37" x="40" y="12" width="15" height="15"></rect>
            <rect id="Rectangle-Copy-3" fill="#FDCC01" x="60" y="0" width="15" height="15"></rect>
            <rect id="Rectangle-Copy-4" fill="#3A3390" x="60" y="20" width="15" height="15"></rect>
            <rect id="Rectangle-Copy-5" fill="#D4162B" x="80" y="17" width="15" height="15"></rect>
            <rect id="Rectangle-Copy-6" stroke="#979797" fill="#F9FAF0" x="100.5" y="21.5" width="14" height="14"></rect>
            <rect id="Rectangle-Copy-7" fill="#0F5AA3" x="120" y="28" width="15" height="15"></rect>
            <rect id="Rectangle-Copy-8" fill="#259549" x="140" y="33" width="15" height="15"></rect>
            <rect id="Rectangle-Copy-9" fill="#EE1C2C" x="160" y="29" width="15" height="15"></rect>
            <rect id="Rectangle-Copy-10" fill="#FCD007" x="180" y="29" width="15" height="15"></rect>
            <rect id="Rectangle-Copy-11" fill="#0948A3" x="200" y="30" width="15" height="15"></rect>
            <rect id="Rectangle-Copy-12" fill="#FA2707" x="200" y="50" width="15" height="15"></rect>
            <rect id="Rectangle-Copy-13" fill="#0A4B9D" x="220" y="37" width="15" height="15"></rect>
            <rect id="Rectangle-Copy-14" fill="#FA101B" x="240" y="44" width="15" height="15"></rect>
            <rect id="Rectangle-Copy-15" fill="#187530" x="260" y="51" width="15" height="15"></rect>
            <rect id="Rectangle-Copy-16" fill="#FA9021" x="280" y="44" width="15" height="15"></rect>
            <rect id="Rectangle-Copy-17" fill="#2FB2E7" x="300" y="41" width="15" height="15"></rect>
            <rect id="Rectangle-Copy-18" stroke="#979797" x="340.5" y="52.5" width="14" height="14"></rect>
            <rect id="Rectangle-Copy-22" fill="#FDCB08" x="320" y="47" width="15" height="15"></rect>
            <rect id="Rectangle-Copy-19" fill="#372C98" x="360" y="56" width="15" height="15"></rect>
            <rect id="Rectangle-Copy-20" fill="#E41025" x="380" y="41" width="15" height="15"></rect>
            <rect id="Rectangle-Copy-21" fill="#259549" x="400" y="41" width="15" height="15"></rect>
            <rect id="Rectangle-Copy-23" fill="#0A4B9D" x="400" y="21" width="15" height="15"></rect>
            <rect id="Rectangle-Copy-24" fill="#F92831" x="420" y="31" width="15" height="15"></rect>
            <rect id="Rectangle-Copy-25" fill="#FAE606" x="440" y="11" width="15" height="15"></rect>
        </g>
        <path d="M107.88,204.23 L107.88,218 L57.3,218 L57.3,155 L106.71,155 L106.71,168.77 L74.94,168.77 L74.94,179.39 L102.93,179.39 L102.93,192.71 L74.94,192.71 L74.94,204.23 L107.88,204.23 Z M115.684286,151.22 L132.784286,151.22 L132.784286,218 L115.684286,218 L115.684286,151.22 Z M228.222857,155 L228.222857,218 L213.552857,218 L185.742857,184.43 L185.742857,218 L168.282857,218 L168.282857,155 L182.952857,155 L210.762857,188.57 L210.762857,155 L228.222857,155 Z M290.027143,169.22 L290.027143,218 L273.737143,218 L273.737143,212.78 C271.937134,214.76001 269.777155,216.259995 267.257143,217.28 C264.73713,218.300005 262.067157,218.81 259.247143,218.81 C252.947111,218.81 247.922162,216.950019 244.172143,213.23 C240.422124,209.509981 238.547143,203.930037 238.547143,196.49 L238.547143,169.22 L255.647143,169.22 L255.647143,193.7 C255.647143,197.360018 256.337136,200.029992 257.717143,201.71 C259.09715,203.390008 261.10713,204.23 263.747143,204.23 C266.447156,204.23 268.652134,203.285009 270.362143,201.395 C272.072151,199.504991 272.927143,196.610019 272.927143,192.71 L272.927143,169.22 L290.027143,169.22 Z M349.581428,193.7 C349.581428,193.820001 349.491429,195.229986 349.311428,197.93 L313.851428,197.93 C314.571432,200.450013 315.966418,202.384993 318.036428,203.735 C320.106439,205.085007 322.701413,205.76 325.821428,205.76 C328.16144,205.76 330.18642,205.430003 331.896428,204.77 C333.606437,204.109997 335.33142,203.030008 337.071428,201.53 L346.071428,210.89 C341.331405,216.170026 334.401474,218.81 325.281428,218.81 C319.5814,218.81 314.57145,217.730011 310.251428,215.57 C305.931407,213.409989 302.58644,210.410019 300.216428,206.57 C297.846417,202.729981 296.661428,198.380024 296.661428,193.52 C296.661428,188.719976 297.816417,184.415019 300.126428,180.605 C302.43644,176.794981 305.631408,173.810011 309.711428,171.65 C313.791449,169.489989 318.381403,168.41 323.481428,168.41 C328.341453,168.41 332.751409,169.41499 336.711428,171.425 C340.671448,173.43501 343.806417,176.344981 346.116428,180.155 C348.42644,183.965019 349.581428,188.479974 349.581428,193.7 Z M323.571428,180.56 C320.931415,180.56 318.726437,181.309993 316.956428,182.81 C315.18642,184.310007 314.061431,186.349987 313.581428,188.93 L333.561428,188.93 C333.081428,186.349987 331.956437,184.310007 330.186428,182.81 C328.41642,181.309993 326.211442,180.56 323.571428,180.56 Z M406.705714,169.22 L386.545714,218 L368.905714,218 L348.835714,169.22 L366.385714,169.22 L378.085714,199.01 L390.415714,169.22 L406.705714,169.22 Z M432.96,218.81 C427.739974,218.81 423.030021,217.730011 418.83,215.57 C414.629979,213.409989 411.345012,210.410019 408.975,206.57 C406.604988,202.729981 405.42,198.380024 405.42,193.52 C405.42,188.719976 406.604988,184.400019 408.975,180.56 C411.345012,176.719981 414.614979,173.735011 418.785,171.605 C422.955021,169.474989 427.679973,168.41 432.96,168.41 C438.240026,168.41 442.979979,169.474989 447.18,171.605 C451.380021,173.735011 454.649988,176.704981 456.99,180.515 C459.330012,184.325019 460.5,188.659976 460.5,193.52 C460.5,198.380024 459.330012,202.729981 456.99,206.57 C454.649988,210.410019 451.380021,213.409989 447.18,215.57 C442.979979,217.730011 438.240026,218.81 432.96,218.81 Z M432.96,205.22 C435.960015,205.22 438.41999,204.18501 440.34,202.115 C442.260009,200.04499 443.22,197.180018 443.22,193.52 C443.22,189.919982 442.260009,187.10001 440.34,185.06 C438.41999,183.01999 435.960015,182 432.96,182 C429.959985,182 427.500009,183.01999 425.58,185.06 C423.65999,187.10001 422.7,189.919982 422.7,193.52 C422.7,197.180018 423.65999,200.04499 425.58,202.115 C427.500009,204.18501 429.959985,205.22 432.96,205.22 Z M88.71,309.26 C82.109967,309.26 76.1850262,307.865014 70.935,305.075 C65.6849737,302.284986 61.560015,298.400025 58.56,293.42 C55.559985,288.439975 54.06,282.800031 54.06,276.5 C54.06,270.199969 55.559985,264.560025 58.56,259.58 C61.560015,254.599975 65.6849737,250.715014 70.935,247.925 C76.1850262,245.134986 82.109967,243.74 88.71,243.74 C94.4700288,243.74 99.6599769,244.75999 104.28,246.8 C108.900023,248.84001 112.739985,251.779981 115.8,255.62 L104.46,265.88 C100.37998,260.959975 95.4300291,258.5 89.61,258.5 C86.1899829,258.5 83.1450133,259.249993 80.475,260.75 C77.8049866,262.250007 75.7350073,264.364986 74.265,267.095 C72.7949926,269.825014 72.06,272.959982 72.06,276.5 C72.06,280.040018 72.7949926,283.174986 74.265,285.905 C75.7350073,288.635014 77.8049866,290.749992 80.475,292.25 C83.1450133,293.750008 86.1899829,294.5 89.61,294.5 C95.4300291,294.5 100.37998,292.040025 104.46,287.12 L115.8,297.38 C112.739985,301.220019 108.900023,304.15999 104.28,306.2 C99.6599769,308.24001 94.4700288,309.26 88.71,309.26 Z M153.394286,258.41 C159.454316,258.41 164.329267,260.209982 168.019286,263.81 C171.709304,267.410018 173.554286,272.839964 173.554286,280.1 L173.554286,308 L156.454286,308 L156.454286,282.89 C156.454286,276.229967 153.784312,272.9 148.444286,272.9 C145.504271,272.9 143.149295,273.85999 141.379286,275.78 C139.609277,277.70001 138.724286,280.579981 138.724286,284.42 L138.724286,308 L121.624286,308 L121.624286,241.22 L138.724286,241.22 L138.724286,263.72 C140.584295,261.979991 142.774273,260.660005 145.294286,259.76 C147.814298,258.859995 150.514271,258.41 153.394286,258.41 Z M182.978571,259.22 L200.078571,259.22 L200.078571,308 L182.978571,308 L182.978571,259.22 Z M191.528571,253.82 C188.408556,253.82 185.888581,252.950009 183.968571,251.21 C182.048562,249.469991 181.088571,247.310013 181.088571,244.73 C181.088571,242.149987 182.048562,239.990009 183.968571,238.25 C185.888581,236.509991 188.408556,235.64 191.528571,235.64 C194.648587,235.64 197.168562,236.464992 199.088571,238.115 C201.008581,239.765008 201.968571,241.879987 201.968571,244.46 C201.968571,247.160013 201.008581,249.394991 199.088571,251.165 C197.168562,252.935009 194.648587,253.82 191.528571,253.82 Z M209.862857,241.22 L226.962857,241.22 L226.962857,308 L209.862857,308 L209.862857,241.22 Z M286.607143,283.7 C286.607143,283.820001 286.517144,285.229986 286.337143,287.93 L250.877143,287.93 C251.597146,290.450013 252.992132,292.384993 255.062143,293.735 C257.132153,295.085007 259.727127,295.76 262.847143,295.76 C265.187154,295.76 267.212134,295.430003 268.922143,294.77 C270.632151,294.109997 272.357134,293.030008 274.097143,291.53 L283.097143,300.89 C278.357119,306.170026 271.427188,308.81 262.307143,308.81 C256.607114,308.81 251.597164,307.730011 247.277143,305.57 C242.957121,303.409989 239.612155,300.410019 237.242143,296.57 C234.872131,292.729981 233.687143,288.380024 233.687143,283.52 C233.687143,278.719976 234.842131,274.415019 237.152143,270.605 C239.462154,266.794981 242.657122,263.810011 246.737143,261.65 C250.817163,259.489989 255.407117,258.41 260.507143,258.41 C265.367167,258.41 269.777123,259.41499 273.737143,261.425 C277.697163,263.43501 280.832131,266.344981 283.142143,270.155 C285.452154,273.965019 286.607143,278.479974 286.607143,283.7 Z M260.597143,270.56 C257.95713,270.56 255.752152,271.309993 253.982143,272.81 C252.212134,274.310007 251.087145,276.349987 250.607143,278.93 L270.587143,278.93 C270.107143,276.349987 268.982152,274.310007 267.212143,272.81 C265.442134,271.309993 263.237156,270.56 260.597143,270.56 Z" id="ElNuevoChile" fill="#000000" fill-rule="nonzero"></path>
    </g>
</svg>