<?xml version="1.0" encoding="UTF-8"?>
<svg width="544px" height="144px" viewBox="0 0 544 144" version="1.1" xmlns="http://www.w3.org/2000/svg" xmlns:xlink="http://www.w3.org/1999/xlink">
    <!-- Generator: Sketch 55.2 (78181) - https://sketchapp.com -->
    <title>Storytelling&amp;ContentLab.</title>
    <desc>Created with Sketch.</desc>
    <g id="Page-1" stroke="none" stroke-width="1" fill="none" fill-rule="evenodd">
        <path d="M27.552,61.394 C12.3,61.394 0.738,54.834 0.492,41.304 L18.04,41.304 C18.614,45.978 22.222,48.192 27.88,48.192 C31.242,48.192 35.342,46.88 35.342,43.354 C35.342,39.828 31.406,38.926 24.19,37.122 C14.35,34.662 2.46,31.3 2.46,18.836 C2.46,5.388 13.448,0.304 26.65,0.304 C38.786,0.304 49.938,5.388 50.184,18.18 L33.21,18.18 C32.718,14.982 30.422,12.932 25.748,12.932 C21.976,12.932 19.352,14.654 19.352,17.032 C19.352,20.476 24.354,20.968 33.128,23.1 C42.968,25.478 52.808,29.332 52.808,41.796 C52.808,54.588 41.41,61.394 27.552,61.394 Z M52.71,27.528 L52.71,18.18 L58.122,18.18 L58.122,4.65 L73.292,4.65 L73.292,18.18 L81.246,18.18 L81.246,27.528 L73.292,27.528 L73.292,44.502 C73.292,48.684 76.244,48.766 81.082,48.438 L81.082,59.836 C78.704,60.41 76.244,60.82 73.456,60.82 C63.288,60.82 58.122,57.95 58.122,47.946 L58.122,27.528 L52.71,27.528 Z M105.502,61.312 C91.562,61.312 82.542,51.882 82.542,39.172 C82.542,26.462 91.562,16.95 105.502,16.95 C119.442,16.95 128.298,26.462 128.298,39.172 C128.298,51.882 119.442,61.312 105.502,61.312 Z M105.338,50.98 C110.094,50.98 112.554,46.224 112.554,39.172 C112.554,32.12 110.094,27.364 105.338,27.364 C100.582,27.364 98.286,32.12 98.286,39.172 C98.286,46.224 100.582,50.98 105.338,50.98 Z M145.912,18.18 L145.912,24.494 L146.158,24.494 C149.52,19.246 153.538,17.278 158.868,17.278 C160.098,17.278 160.918,17.442 161.41,17.688 L161.41,30.89 L161.082,30.89 C151.98,29.332 146.65,33.432 146.65,42.862 L146.65,60 L131.152,60 L131.152,18.18 L145.912,18.18 Z M167.216,73.858 L167.216,61.886 L172.382,61.886 C175.826,61.886 177.22,60.984 177.22,58.77 C177.22,57.458 176.318,55.244 175.334,52.784 L161.968,18.18 L178.286,18.18 L183.452,34.99 C184.764,39.254 185.912,45.158 185.912,45.158 L186.076,45.158 C186.076,45.158 187.306,39.254 188.618,34.99 L193.702,18.18 L209.118,18.18 L194.85,60 C191.324,70.332 186.404,73.858 177.958,73.858 L167.216,73.858 Z M209.758,27.528 L209.758,18.18 L215.17,18.18 L215.17,4.65 L230.34,4.65 L230.34,18.18 L238.294,18.18 L238.294,27.528 L230.34,27.528 L230.34,44.502 C230.34,48.684 233.292,48.766 238.13,48.438 L238.13,59.836 C235.752,60.41 233.292,60.82 230.504,60.82 C220.336,60.82 215.17,57.95 215.17,47.946 L215.17,27.528 L209.758,27.528 Z M262.468,61.148 C248.774,61.148 239.59,51.8 239.59,39.008 C239.59,26.38 248.692,16.786 261.894,16.786 C268.454,16.786 273.456,18.918 277.31,22.444 C282.394,27.118 284.772,34.58 284.608,42.862 L254.76,42.862 C255.662,47.7 258.286,50.652 262.96,50.652 C265.666,50.652 267.634,49.586 268.782,47.536 L283.788,47.536 C282.886,51.308 279.934,54.998 275.834,57.622 C271.98,60.082 267.798,61.148 262.468,61.148 Z M262.222,27.2 C257.958,27.2 255.58,30.07 254.76,34.662 L269.192,34.662 C268.536,29.988 265.912,27.2 262.222,27.2 Z M287.462,60 L287.462,1.37 L303.37,1.37 L303.37,60 L287.462,60 Z M307.946,60 L307.946,1.37 L323.854,1.37 L323.854,60 L307.946,60 Z M328.43,60 L328.43,18.18 L343.928,18.18 L343.928,60 L328.43,60 Z M328.43,13.096 L328.43,1.37 L343.928,1.37 L343.928,13.096 L328.43,13.096 Z M363.264,18.18 L363.264,23.92 L363.51,23.92 C366.872,19.328 371.136,16.868 376.958,16.868 C386.634,16.868 391.636,23.346 391.636,32.94 L391.636,60 L376.138,60 L376.138,36.712 C376.138,32.366 374.334,29.496 370.316,29.496 C366.38,29.496 364.002,32.94 364.002,37.45 L364.002,60 L348.504,60 L348.504,18.18 L363.264,18.18 Z M416.384,74.596 C404.658,74.596 396.458,70.004 394.982,60.738 L409.906,60.738 C410.48,62.46 412.448,64.264 416.138,64.264 C421.14,64.264 422.862,61.312 422.862,56.966 L422.862,53.194 L422.534,53.194 C420.074,55.982 416.794,57.95 411.956,57.95 C402.444,57.95 394.162,51.308 394.162,38.188 C394.162,26.216 400.968,16.868 411.218,16.868 C417.122,16.868 420.73,19.164 423.108,22.772 L423.354,22.772 L423.354,18.18 L438.114,18.18 L438.114,54.998 C438.114,61.722 435.654,66.888 431.964,70.004 C428.11,73.284 422.616,74.596 416.384,74.596 Z M416.384,47.126 C420.894,47.126 423.518,43.026 423.518,37.532 C423.518,32.284 420.894,28.102 416.384,28.102 C412.038,28.102 409.25,31.874 409.25,37.532 C409.25,43.108 412.038,47.126 416.384,47.126 Z M24.108,142.738 C9.84,142.738 1.968,135.03 1.968,124.698 C1.968,115.104 8.2,110.758 15.006,107.888 C12.71,105.264 10.824,101.574 10.824,97.31 C10.824,88.7 17.384,82.304 28.7,82.304 C39.032,82.304 46.494,87.798 46.494,97.064 C46.494,104.526 41,108.544 35.26,111.004 L41.574,118.712 C42.476,116.99 43.214,115.186 43.706,113.382 L56.99,113.382 C56.334,118.138 53.792,123.714 49.774,128.798 L60.68,142 L41.574,142 L38.868,138.474 C34.44,141.098 29.438,142.738 24.108,142.738 Z M24.928,130.52 C27.142,130.52 29.356,129.946 31.406,128.88 L22.304,117.072 C19.106,118.958 17.958,121.336 17.958,124.37 C17.958,128.142 20.746,130.52 24.928,130.52 Z M24.928,97.064 C24.928,99.688 26.65,101.82 28.782,103.542 C31.734,101.984 33.21,99.77 33.21,97.146 C33.21,94.85 31.734,92.8 29.11,92.8 C26.404,92.8 24.928,94.604 24.928,97.064 Z M101.566,143.394 C83.69,143.394 71.882,130.438 71.882,112.89 C71.882,95.342 83.936,82.304 101.566,82.304 C107.962,82.304 113.702,83.944 117.966,86.896 C124.034,91.078 127.56,97.638 128.298,105.1 L111.16,105.1 C110.75,100.508 106.896,96.408 101.32,96.408 C93.202,96.408 89.266,103.296 89.266,112.89 C89.266,122.484 93.858,129.372 101.484,129.372 C107.47,129.372 111.078,125.436 111.652,120.188 L128.954,120.188 C128.462,126.666 125.51,132.406 121.328,136.424 C116.326,141.262 110.094,143.394 101.566,143.394 Z M153.456,143.312 C139.516,143.312 130.496,133.882 130.496,121.172 C130.496,108.462 139.516,98.95 153.456,98.95 C167.396,98.95 176.252,108.462 176.252,121.172 C176.252,133.882 167.396,143.312 153.456,143.312 Z M153.292,132.98 C158.048,132.98 160.508,128.224 160.508,121.172 C160.508,114.12 158.048,109.364 153.292,109.364 C148.536,109.364 146.24,114.12 146.24,121.172 C146.24,128.224 148.536,132.98 153.292,132.98 Z M193.866,100.18 L193.866,105.92 L194.112,105.92 C197.474,101.328 201.738,98.868 207.56,98.868 C217.236,98.868 222.238,105.346 222.238,114.94 L222.238,142 L206.74,142 L206.74,118.712 C206.74,114.366 204.936,111.496 200.918,111.496 C196.982,111.496 194.604,114.94 194.604,119.45 L194.604,142 L179.106,142 L179.106,100.18 L193.866,100.18 Z M223.452,109.528 L223.452,100.18 L228.864,100.18 L228.864,86.65 L244.034,86.65 L244.034,100.18 L251.988,100.18 L251.988,109.528 L244.034,109.528 L244.034,126.502 C244.034,130.684 246.986,130.766 251.824,130.438 L251.824,141.836 C249.446,142.41 246.986,142.82 244.198,142.82 C234.03,142.82 228.864,139.95 228.864,129.946 L228.864,109.528 L223.452,109.528 Z M276.162,143.148 C262.468,143.148 253.284,133.8 253.284,121.008 C253.284,108.38 262.386,98.786 275.588,98.786 C282.148,98.786 287.15,100.918 291.004,104.444 C296.088,109.118 298.466,116.58 298.302,124.862 L268.454,124.862 C269.356,129.7 271.98,132.652 276.654,132.652 C279.36,132.652 281.328,131.586 282.476,129.536 L297.482,129.536 C296.58,133.308 293.628,136.998 289.528,139.622 C285.674,142.082 281.492,143.148 276.162,143.148 Z M275.916,109.2 C271.652,109.2 269.274,112.07 268.454,116.662 L282.886,116.662 C282.23,111.988 279.606,109.2 275.916,109.2 Z M315.916,100.18 L315.916,105.92 L316.162,105.92 C319.524,101.328 323.788,98.868 329.61,98.868 C339.286,98.868 344.288,105.346 344.288,114.94 L344.288,142 L328.79,142 L328.79,118.712 C328.79,114.366 326.986,111.496 322.968,111.496 C319.032,111.496 316.654,114.94 316.654,119.45 L316.654,142 L301.156,142 L301.156,100.18 L315.916,100.18 Z M345.502,109.528 L345.502,100.18 L350.914,100.18 L350.914,86.65 L366.084,86.65 L366.084,100.18 L374.038,100.18 L374.038,109.528 L366.084,109.528 L366.084,126.502 C366.084,130.684 369.036,130.766 373.874,130.438 L373.874,141.836 C371.496,142.41 369.036,142.82 366.248,142.82 C356.08,142.82 350.914,139.95 350.914,129.946 L350.914,109.528 L345.502,109.528 Z M389.012,142 L389.012,83.37 L406.15,83.37 L406.15,127.322 L431.242,127.322 L431.242,142 L389.012,142 Z M461.074,142 C460.5,141.016 460.008,139.704 459.68,137.408 L459.516,137.408 C456.728,141.262 452.3,143.066 446.888,143.066 C438.852,143.066 432.948,138.72 432.948,130.52 C432.948,121.254 440.082,118.548 448.118,117.646 C456.974,116.662 459.352,115.596 459.352,112.972 C459.352,110.676 458.286,108.954 454.924,108.954 C451.562,108.954 449.84,110.922 449.43,113.956 L434.752,113.956 C435.08,105.674 441.476,98.868 454.596,98.868 C460.992,98.868 465.092,99.688 468.29,101.656 C472.636,104.362 474.768,108.626 474.768,114.202 L474.768,135.112 C474.768,138.638 475.014,140.524 476.326,141.344 L476.326,142 L461.074,142 Z M452.71,133.882 C456.318,133.882 459.762,131.832 459.762,126.83 L459.762,123.14 C458.286,123.878 456.4,124.534 453.776,125.108 C449.266,126.092 447.872,127.404 447.872,129.864 C447.872,132.652 450.168,133.882 452.71,133.882 Z M507.552,143.394 C502.304,143.394 497.384,141.344 494.596,136.588 L494.432,136.588 L494.432,142 L479.672,142 L479.672,83.37 L495.17,83.37 L495.17,104.526 L495.416,104.526 C498.368,100.836 502.058,98.868 507.716,98.868 C518.95,98.868 525.428,108.872 525.428,121.008 C525.428,135.276 518.622,143.394 507.552,143.394 Z M502.468,131.586 C507.224,131.586 509.684,127.404 509.684,120.844 C509.684,114.284 507.142,110.102 502.468,110.102 C497.712,110.102 494.596,114.776 494.596,120.844 C494.596,126.994 497.712,131.586 502.468,131.586 Z M527.79,142 L527.79,126.338 L543.78,126.338 L543.78,142 L527.79,142 Z" id="Storytelling&amp;ContentLab." fill="#000000" fill-rule="nonzero"></path>
    </g>
</svg>