<?xml version="1.0" encoding="UTF-8"?>
<svg width="144px" height="74px" viewBox="0 0 144 74" version="1.1" xmlns="http://www.w3.org/2000/svg" xmlns:xlink="http://www.w3.org/1999/xlink">
    <!-- Generator: Sketch 55.2 (78181) - https://sketchapp.com -->
    <title>Group</title>
    <desc>Created with Sketch.</desc>
    <g id="Page-5" stroke="none" stroke-width="1" fill="none" fill-rule="evenodd">
        <g id="Logo-Black" transform="translate(-21.000000, -23.000000)" fill="#000000">
            <g id="Group" transform="translate(21.000000, 23.247000)">
                <rect id="Rectangle" x="0" y="48.753" width="143" height="25"></rect>
                <path d="M17.385,24.773 L11.625,24.773 L11.625,41.753 L6.105,41.753 L6.105,24.773 L0.345,24.773 L0.345,20.153 L17.385,20.153 L17.385,24.773 Z M20.985,20.153 L28.845,20.153 C34.005,20.153 37.575,22.643 37.575,27.503 C37.575,30.623 35.985,32.693 33.615,33.743 L37.965,41.753 L32.235,41.753 L28.755,34.643 L26.355,34.643 L26.355,41.753 L20.985,41.753 L20.985,20.153 Z M29.085,24.773 L26.355,24.773 L26.355,30.263 L29.115,30.263 C30.765,30.263 32.025,29.483 32.025,27.503 C32.025,25.613 30.735,24.773 29.085,24.773 Z M39.675,41.753 L50.415,19.853 L50.685,19.853 L61.425,41.753 L55.695,41.753 L54.165,38.453 L46.905,38.453 L45.405,41.753 L39.675,41.753 Z M48.495,34.763 L52.605,34.763 C51.855,33.053 50.985,30.923 50.565,29.603 C50.265,30.323 49.095,33.383 48.495,34.763 Z M77.385,30.413 C79.215,30.953 80.955,32.843 80.955,35.333 C80.955,39.713 77.355,41.753 72.195,41.753 L64.485,41.753 L64.485,20.153 L71.655,20.153 C76.395,20.153 80.145,22.073 80.145,26.303 C80.145,28.433 78.855,29.813 77.385,30.413 Z M69.705,28.973 L71.925,28.973 C72.525,28.973 73.095,28.913 73.575,28.673 C74.205,28.403 74.625,27.743 74.625,26.813 C74.625,25.223 73.485,24.533 71.985,24.533 L69.705,24.533 L69.705,28.973 Z M69.705,32.543 L69.705,37.373 L72.495,37.373 C73.965,37.373 75.285,36.653 75.285,34.973 C75.285,33.263 74.025,32.543 72.615,32.543 L69.705,32.543 Z M82.815,41.753 L93.555,19.853 L93.825,19.853 L104.565,41.753 L98.835,41.753 L97.305,38.453 L90.045,38.453 L88.545,41.753 L82.815,41.753 Z M91.635,34.763 L95.745,34.763 C94.995,33.053 94.125,30.923 93.705,29.603 C93.405,30.323 92.235,33.383 91.635,34.763 Z M116.085,20.153 L116.085,35.303 C116.085,40.313 113.475,42.173 109.185,42.173 C107.745,42.173 106.605,41.903 106.065,41.633 L106.065,37.103 C106.485,37.313 107.415,37.583 108.225,37.583 C109.725,37.583 110.565,36.893 110.565,35.363 L110.565,20.153 L116.085,20.153 Z M120.225,30.953 C120.225,24.773 124.995,19.733 131.655,19.733 C138.315,19.733 143.085,24.743 143.085,30.953 C143.085,37.223 138.345,42.173 131.655,42.173 C124.995,42.173 120.225,37.223 120.225,30.953 Z M125.745,30.953 C125.745,34.313 128.145,37.163 131.655,37.163 C135.165,37.163 137.535,34.313 137.535,30.953 C137.535,27.623 135.165,24.743 131.655,24.743 C128.145,24.743 125.745,27.623 125.745,30.953 Z" id="TRABAJO-Copy" fill-rule="nonzero"></path>
                <path d="M5.9575,10.14 L2.9935,6.253 L2.7335,5.889 C2.7465,6.188 2.7465,6.474 2.7465,6.76 L2.7465,12.753 L1.7845,12.753 L1.7845,3.237 L1.7975,3.237 L5.9575,8.697 L10.1175,3.237 L10.1305,3.237 L10.1305,12.753 L9.1685,12.753 L9.1685,6.76 C9.1685,6.474 9.1685,6.188 9.1815,5.889 C9.0515,6.097 8.8435,6.37 8.6745,6.617 L5.9575,10.14 Z M18.5155,12.753 L22.7665,3.237 L22.7925,3.237 L27.0435,12.753 L26.0035,12.753 L25.0025,10.491 L20.5435,10.491 L19.5685,12.753 L18.5155,12.753 Z M20.9205,9.672 L24.6385,9.672 C23.9625,8.125 23.3775,6.773 22.7795,5.304 C22.1815,6.773 21.5965,8.125 20.9205,9.672 Z M22.2465,2.561 L23.7025,8.8817842e-16 L24.9765,8.8817842e-16 L23.1045,2.561 L22.2465,2.561 Z M37.5995,12.909 C36.5205,12.909 35.5455,12.623 34.9475,12.35 L34.9475,11.362 C35.5585,11.661 36.5205,12.012 37.5475,12.012 C38.7695,12.012 39.7055,11.466 39.7055,10.517 C39.7055,9.568 39.1985,9.061 37.5475,8.476 C35.6885,7.813 34.9215,7.02 34.9215,5.668 C34.9215,4.121 36.2475,3.237 37.9245,3.237 C38.8605,3.237 39.7055,3.497 40.1995,3.718 L40.1995,4.68 C39.6925,4.42 38.7955,4.134 37.9635,4.134 C36.7675,4.134 35.8965,4.719 35.8965,5.629 C35.8965,6.474 36.3515,7.059 38.0285,7.67 C39.9005,8.333 40.6805,9.087 40.6805,10.452 C40.6805,11.999 39.4325,12.909 37.5995,12.909 Z M58.3345,8.073 C58.3345,5.395 60.3885,3.237 63.0925,3.237 C65.7835,3.237 67.8635,5.369 67.8635,8.073 C67.8635,10.53 66.1865,12.493 63.8725,12.844 C65.0165,13.819 66.6025,14.495 68.0065,14.495 C68.4485,14.495 68.9425,14.443 69.2805,14.365 L69.2805,15.262 C68.9685,15.353 68.4485,15.405 67.9285,15.405 C66.1215,15.405 64.0545,14.391 62.6635,12.883 C60.1675,12.688 58.3345,10.647 58.3345,8.073 Z M59.3355,8.073 C59.3355,10.296 60.9215,11.986 63.0925,11.986 C65.2765,11.986 66.8495,10.296 66.8495,8.073 C66.8495,5.85 65.2765,4.16 63.0925,4.16 C60.9215,4.16 59.3355,5.85 59.3355,8.073 Z M83.6975,3.393 L83.6975,9.529 C83.6975,11.648 82.3845,12.909 80.1875,12.909 C78.0035,12.909 76.6905,11.648 76.6905,9.529 L76.6905,3.393 L77.6785,3.393 L77.6785,9.477 C77.6785,11.05 78.6145,11.986 80.1875,11.986 C81.7605,11.986 82.7095,11.05 82.7095,9.477 L82.7095,3.393 L83.6975,3.393 Z M98.9595,12.753 L93.1225,12.753 L93.1225,3.393 L98.7645,3.393 L98.7645,4.225 L94.1105,4.225 L94.1105,7.592 L98.0495,7.592 L98.0495,8.437 L94.1105,8.437 L94.1105,11.921 L98.9595,11.921 L98.9595,12.753 Z M124.0625,3.393 L124.0625,9.529 C124.0625,11.648 122.7495,12.909 120.5525,12.909 C118.3685,12.909 117.0555,11.648 117.0555,9.529 L117.0555,3.393 L118.0435,3.393 L118.0435,9.477 C118.0435,11.05 118.9795,11.986 120.5525,11.986 C122.1255,11.986 123.0745,11.05 123.0745,9.477 L123.0745,3.393 L124.0625,3.393 Z M140.7025,12.909 L134.7355,6.032 C134.6445,5.928 134.5405,5.811 134.4625,5.707 C134.4625,5.967 134.4755,6.24 134.4755,6.539 L134.4755,12.753 L133.4875,12.753 L133.4875,3.237 L133.5005,3.237 L139.4675,10.114 L139.7405,10.439 C139.7405,10.179 139.7275,9.919 139.7275,9.607 L139.7275,3.393 L140.7155,3.393 L140.7155,12.909 L140.7025,12.909 Z" id="MÃSQUEUN" fill-rule="nonzero"></path>
            </g>
        </g>
    </g>
</svg>