<?xml version="1.0" encoding="UTF-8"?>
<svg width="144px" height="50px" viewBox="0 0 144 50" version="1.1" xmlns="http://www.w3.org/2000/svg" xmlns:xlink="http://www.w3.org/1999/xlink">
    <!-- Generator: Sketch 55.2 (78181) - https://sketchapp.com -->
    <title>logo-black</title>
    <desc>Created with Sketch.</desc>
    <g id="Page-1" stroke="none" stroke-width="1" fill="none" fill-rule="evenodd">
        <g id="logo-black" fill="#000000" fill-rule="nonzero">
            <path d="M17.385,25.02 L11.625,25.02 L11.625,42 L6.105,42 L6.105,25.02 L0.345,25.02 L0.345,20.4 L17.385,20.4 L17.385,25.02 Z M20.985,20.4 L28.845,20.4 C34.005,20.4 37.575,22.89 37.575,27.75 C37.575,30.87 35.985,32.94 33.615,33.99 L37.965,42 L32.235,42 L28.755,34.89 L26.355,34.89 L26.355,42 L20.985,42 L20.985,20.4 Z M29.085,25.02 L26.355,25.02 L26.355,30.51 L29.115,30.51 C30.765,30.51 32.025,29.73 32.025,27.75 C32.025,25.86 30.735,25.02 29.085,25.02 Z M39.675,42 L50.415,20.1 L50.685,20.1 L61.425,42 L55.695,42 L54.165,38.7 L46.905,38.7 L45.405,42 L39.675,42 Z M48.495,35.01 L52.605,35.01 C51.855,33.3 50.985,31.17 50.565,29.85 C50.265,30.57 49.095,33.63 48.495,35.01 Z M77.385,30.66 C79.215,31.2 80.955,33.09 80.955,35.58 C80.955,39.96 77.355,42 72.195,42 L64.485,42 L64.485,20.4 L71.655,20.4 C76.395,20.4 80.145,22.32 80.145,26.55 C80.145,28.68 78.855,30.06 77.385,30.66 Z M69.705,29.22 L71.925,29.22 C72.525,29.22 73.095,29.16 73.575,28.92 C74.205,28.65 74.625,27.99 74.625,27.06 C74.625,25.47 73.485,24.78 71.985,24.78 L69.705,24.78 L69.705,29.22 Z M69.705,32.79 L69.705,37.62 L72.495,37.62 C73.965,37.62 75.285,36.9 75.285,35.22 C75.285,33.51 74.025,32.79 72.615,32.79 L69.705,32.79 Z M82.815,42 L93.555,20.1 L93.825,20.1 L104.565,42 L98.835,42 L97.305,38.7 L90.045,38.7 L88.545,42 L82.815,42 Z M91.635,35.01 L95.745,35.01 C94.995,33.3 94.125,31.17 93.705,29.85 C93.405,30.57 92.235,33.63 91.635,35.01 Z M116.085,20.4 L116.085,35.55 C116.085,40.56 113.475,42.42 109.185,42.42 C107.745,42.42 106.605,42.15 106.065,41.88 L106.065,37.35 C106.485,37.56 107.415,37.83 108.225,37.83 C109.725,37.83 110.565,37.14 110.565,35.61 L110.565,20.4 L116.085,20.4 Z M120.225,31.2 C120.225,25.02 124.995,19.98 131.655,19.98 C138.315,19.98 143.085,24.99 143.085,31.2 C143.085,37.47 138.345,42.42 131.655,42.42 C124.995,42.42 120.225,37.47 120.225,31.2 Z M125.745,31.2 C125.745,34.56 128.145,37.41 131.655,37.41 C135.165,37.41 137.535,34.56 137.535,31.2 C137.535,27.87 135.165,24.99 131.655,24.99 C128.145,24.99 125.745,27.87 125.745,31.2 Z" id="TRABAJO-Copy"></path>
            <path d="M5.9575,10.387 L2.9935,6.5 L2.7335,6.136 C2.7465,6.435 2.7465,6.721 2.7465,7.007 L2.7465,13 L1.7845,13 L1.7845,3.484 L1.7975,3.484 L5.9575,8.944 L10.1175,3.484 L10.1305,3.484 L10.1305,13 L9.1685,13 L9.1685,7.007 C9.1685,6.721 9.1685,6.435 9.1815,6.136 C9.0515,6.344 8.8435,6.617 8.6745,6.864 L5.9575,10.387 Z M18.5155,13 L22.7665,3.484 L22.7925,3.484 L27.0435,13 L26.0035,13 L25.0025,10.738 L20.5435,10.738 L19.5685,13 L18.5155,13 Z M20.9205,9.919 L24.6385,9.919 C23.9625,8.372 23.3775,7.02 22.7795,5.551 C22.1815,7.02 21.5965,8.372 20.9205,9.919 Z M22.2465,2.808 L23.7025,0.247 L24.9765,0.247 L23.1045,2.808 L22.2465,2.808 Z M37.5995,13.156 C36.5205,13.156 35.5455,12.87 34.9475,12.597 L34.9475,11.609 C35.5585,11.908 36.5205,12.259 37.5475,12.259 C38.7695,12.259 39.7055,11.713 39.7055,10.764 C39.7055,9.815 39.1985,9.308 37.5475,8.723 C35.6885,8.06 34.9215,7.267 34.9215,5.915 C34.9215,4.368 36.2475,3.484 37.9245,3.484 C38.8605,3.484 39.7055,3.744 40.1995,3.965 L40.1995,4.927 C39.6925,4.667 38.7955,4.381 37.9635,4.381 C36.7675,4.381 35.8965,4.966 35.8965,5.876 C35.8965,6.721 36.3515,7.306 38.0285,7.917 C39.9005,8.58 40.6805,9.334 40.6805,10.699 C40.6805,12.246 39.4325,13.156 37.5995,13.156 Z M58.3345,8.32 C58.3345,5.642 60.3885,3.484 63.0925,3.484 C65.7835,3.484 67.8635,5.616 67.8635,8.32 C67.8635,10.777 66.1865,12.74 63.8725,13.091 C65.0165,14.066 66.6025,14.742 68.0065,14.742 C68.4485,14.742 68.9425,14.69 69.2805,14.612 L69.2805,15.509 C68.9685,15.6 68.4485,15.652 67.9285,15.652 C66.1215,15.652 64.0545,14.638 62.6635,13.13 C60.1675,12.935 58.3345,10.894 58.3345,8.32 Z M59.3355,8.32 C59.3355,10.543 60.9215,12.233 63.0925,12.233 C65.2765,12.233 66.8495,10.543 66.8495,8.32 C66.8495,6.097 65.2765,4.407 63.0925,4.407 C60.9215,4.407 59.3355,6.097 59.3355,8.32 Z M83.6975,3.64 L83.6975,9.776 C83.6975,11.895 82.3845,13.156 80.1875,13.156 C78.0035,13.156 76.6905,11.895 76.6905,9.776 L76.6905,3.64 L77.6785,3.64 L77.6785,9.724 C77.6785,11.297 78.6145,12.233 80.1875,12.233 C81.7605,12.233 82.7095,11.297 82.7095,9.724 L82.7095,3.64 L83.6975,3.64 Z M98.9595,13 L93.1225,13 L93.1225,3.64 L98.7645,3.64 L98.7645,4.472 L94.1105,4.472 L94.1105,7.839 L98.0495,7.839 L98.0495,8.684 L94.1105,8.684 L94.1105,12.168 L98.9595,12.168 L98.9595,13 Z M124.0625,3.64 L124.0625,9.776 C124.0625,11.895 122.7495,13.156 120.5525,13.156 C118.3685,13.156 117.0555,11.895 117.0555,9.776 L117.0555,3.64 L118.0435,3.64 L118.0435,9.724 C118.0435,11.297 118.9795,12.233 120.5525,12.233 C122.1255,12.233 123.0745,11.297 123.0745,9.724 L123.0745,3.64 L124.0625,3.64 Z M140.7025,13.156 L134.7355,6.279 C134.6445,6.175 134.5405,6.058 134.4625,5.954 C134.4625,6.214 134.4755,6.487 134.4755,6.786 L134.4755,13 L133.4875,13 L133.4875,3.484 L133.5005,3.484 L139.4675,10.361 L139.7405,10.686 C139.7405,10.426 139.7275,10.166 139.7275,9.854 L139.7275,3.64 L140.7155,3.64 L140.7155,13.156 L140.7025,13.156 Z" id="MÃSQUEUN"></path>
        </g>
    </g>
</svg>