<?xml version="1.0" encoding="UTF-8"?>
<svg width="68px" height="30px" viewBox="0 0 68 30" version="1.1" xmlns="http://www.w3.org/2000/svg" xmlns:xlink="http://www.w3.org/1999/xlink">
    <!-- Generator: Sketch 55.2 (78181) - https://sketchapp.com -->
    <title>logo-color</title>
    <desc>Created with Sketch.</desc>
    <g id="Page-1" stroke="none" stroke-width="1" fill="none" fill-rule="evenodd">
        <g id="logo-color" fill="#000000" fill-rule="nonzero">
            <path d="M22.88,20.64 C22.88,22.2666748 22.4600042,23.7333268 21.62,25.04 C20.7799958,26.3466732 19.560008,27.3799962 17.96,28.14 C16.359992,28.9000038 14.4533444,29.28 12.24,29.28 C8.8533164,29.28 6.060011,28.4866746 3.86,26.9 C1.659989,25.3133254 0.4666676,22.986682 0.28,19.92 L9.72,19.92 C9.853334,21.5466748 10.5733268,22.36 11.88,22.36 C12.3333356,22.36 12.7,22.2400012 12.98,22 C13.2600014,21.7599988 13.4,21.4133356 13.4,20.96 C13.4,20.29333 13.0600034,19.7666686 12.38,19.38 C11.7,18.9933314 10.6000076,18.5466692 9.08,18.04 C7.2933244,17.4533304 5.8066726,16.8533364 4.62,16.24 C3.4333274,15.6266636 2.4000044,14.720006 1.52,13.52 C0.6399956,12.319994 0.2,10.7600096 0.2,8.84 C0.2,6.9999908 0.6733286,5.4333398 1.62,4.14 C2.5666714,2.8466602 3.8599918,1.86667 5.5,1.2 C7.1400082,0.53333 8.9866564,0.2 11.04,0.2 C14.4266836,0.2 17.11999,0.9866588 19.12,2.56 C21.12001,4.1333412 22.2133324,6.3999852 22.4,9.36 L12.84,9.36 C12.706666,7.8666592 12.0933388,7.12 11,7.12 C10.6266648,7.12 10.3200012,7.2333322 10.08,7.46 C9.8399988,7.6866678 9.72,8.0266644 9.72,8.48 C9.72,9.0933364 10.0599966,9.5933314 10.74,9.98 C11.4200034,10.3666686 12.4799928,10.8133308 13.92,11.32 C15.7333424,11.9600032 17.2333274,12.5933302 18.42,13.22 C19.6066726,13.8466698 20.6466622,14.7666606 21.54,15.98 C22.4333378,17.1933394 22.88,18.7466572 22.88,20.64 Z" id="path-1"></path>
            <path d="M30.64,0.4 C33.0933456,0.4 35.286657,0.8599954 37.22,1.78 C39.153343,2.7000046 40.7266606,3.9999916 41.94,5.68 C43.1533394,7.3600084 43.959998,9.3199888 44.36,11.56 L35,11.56 C34.5733312,10.626662 33.9666706,9.9 33.18,9.38 C32.3933294,8.8599974 31.4933384,8.6 30.48,8.6 C28.9866592,8.6 27.806671,9.1599944 26.94,10.28 C26.073329,11.4 25.64,12.9066572 25.64,14.8 C25.64,16.6933428 26.073329,18.1999944 26.94,19.32 C27.806671,20.4400056 28.9866592,21 30.48,21 C31.4933384,21 32.3933294,20.7400026 33.18,20.22 C33.9666706,19.6999974 34.5733312,18.973338 35,18.04 L44.36,18.04 C43.959998,20.2800112 43.1533394,22.2399916 41.94,23.92 C40.7266606,25.6000084 39.153343,26.9 37.22,27.82 C35.286657,28.7400046 33.0933456,29.2 30.64,29.2 C27.7866524,29.2 25.3066772,28.5933394 23.2,27.38 C21.0933228,26.1666606 19.473339,24.4666776 18.34,22.28 C17.206661,20.0933224 16.64,17.600014 16.64,14.8 C16.64,11.999986 17.206661,9.5066776 18.34,7.32 C19.473339,5.1333224 21.0933228,3.4333394 23.2,2.22 C25.3066772,1.0066606 27.7866524,0.4 30.64,0.4 Z" id="path-2" opacity="0.401827567"></path>
            <path d="M47.88,22.28 L56.44,22.28 L56.44,29 L39,29 L39,0.68 L47.88,0.68 L47.88,22.28 Z M67.16,20.52 L67.16,29 L58.36,29 L58.36,20.52 L67.16,20.52 Z" id="path-3" opacity="0.202734375"></path>
        </g>
    </g>
</svg>