<?xml version="1.0" encoding="UTF-8"?>
<svg width="75px" height="75px" viewBox="0 0 75 75" version="1.1" xmlns="http://www.w3.org/2000/svg" xmlns:xlink="http://www.w3.org/1999/xlink">
    <!-- Generator: Sketch 54.1 (76490) - https://sketchapp.com -->
    <title>Logo-Color</title>
    <desc>Created with Sketch.</desc>
    <g id="Logo-Color" stroke="none" stroke-width="1" fill="none" fill-rule="evenodd">
        <path d="M26.88,43.64 C26.88,45.2666748 26.4600042,46.7333268 25.62,48.04 C24.7799958,49.3466732 23.560008,50.3799962 21.96,51.14 C20.359992,51.9000038 18.4533444,52.28 16.24,52.28 C12.8533164,52.28 10.060011,51.4866746 7.86,49.9 C5.659989,48.3133254 4.4666676,45.986682 4.28,42.92 L13.72,42.92 C13.853334,44.5466748 14.5733268,45.36 15.88,45.36 C16.3333356,45.36 16.6999986,45.2400012 16.98,45 C17.2600014,44.7599988 17.4,44.4133356 17.4,43.96 C17.4,43.29333 17.0600034,42.7666686 16.38,42.38 C15.6999966,41.9933314 14.6000076,41.5466692 13.08,41.04 C11.2933244,40.4533304 9.8066726,39.8533364 8.62,39.24 C7.4333274,38.6266636 6.4000044,37.720006 5.52,36.52 C4.6399956,35.319994 4.2,33.7600096 4.2,31.84 C4.2,29.9999908 4.6733286,28.4333398 5.62,27.14 C6.5666714,25.8466602 7.8599918,24.86667 9.5,24.2 C11.1400082,23.53333 12.9866564,23.2 15.04,23.2 C18.4266836,23.2 21.11999,23.9866588 23.12,25.56 C25.12001,27.1333412 26.2133324,29.3999852 26.4,32.36 L16.84,32.36 C16.706666,30.8666592 16.0933388,30.12 15,30.12 C14.6266648,30.12 14.3200012,30.2333322 14.08,30.46 C13.8399988,30.6866678 13.72,31.0266644 13.72,31.48 C13.72,32.0933364 14.0599966,32.5933314 14.74,32.98 C15.4200034,33.3666686 16.4799928,33.8133308 17.92,34.32 C19.7333424,34.9600032 21.2333274,35.5933302 22.42,36.22 C23.6066726,36.8466698 24.6466622,37.7666606 25.54,38.98 C26.4333378,40.1933394 26.88,41.7466572 26.88,43.64 Z" id="path-1" fill="#FAB20E" fill-rule="nonzero"></path>
        <path d="M34.64,23.4 C37.0933456,23.4 39.286657,23.8599954 41.22,24.78 C43.153343,25.7000046 44.7266606,26.9999916 45.94,28.68 C47.1533394,30.3600084 47.959998,32.3199888 48.36,34.56 L39,34.56 C38.5733312,33.626662 37.9666706,32.9000026 37.18,32.38 C36.3933294,31.8599974 35.4933384,31.6 34.48,31.6 C32.9866592,31.6 31.806671,32.1599944 30.94,33.28 C30.073329,34.4000056 29.64,35.9066572 29.64,37.8 C29.64,39.6933428 30.073329,41.1999944 30.94,42.32 C31.806671,43.4400056 32.9866592,44 34.48,44 C35.4933384,44 36.3933294,43.7400026 37.18,43.22 C37.9666706,42.6999974 38.5733312,41.973338 39,41.04 L48.36,41.04 C47.959998,43.2800112 47.1533394,45.2399916 45.94,46.92 C44.7266606,48.6000084 43.153343,49.8999954 41.22,50.82 C39.286657,51.7400046 37.0933456,52.2 34.64,52.2 C31.7866524,52.2 29.3066772,51.5933394 27.2,50.38 C25.0933228,49.1666606 23.473339,47.4666776 22.34,45.28 C21.206661,43.0933224 20.64,40.600014 20.64,37.8 C20.64,34.999986 21.206661,32.5066776 22.34,30.32 C23.473339,28.1333224 25.0933228,26.4333394 27.2,25.22 C29.3066772,24.0066606 31.7866524,23.4 34.64,23.4 Z" id="path-2" fill="#FAB20E" fill-rule="nonzero" opacity="0.8"></path>
        <path d="M51.88,45.28 L60.44,45.28 L60.44,52 L43,52 L43,23.68 L51.88,23.68 L51.88,45.28 Z M71.16,43.52 L71.16,52 L62.36,52 L62.36,43.52 L71.16,43.52 Z" id="path-3" fill="#FAB20E" fill-rule="nonzero" opacity="0.6"></path>
    </g>
</svg>