<?xml version="1.0" encoding="UTF-8"?>
<svg width="439px" height="221px" viewBox="0 0 439 221" version="1.1" xmlns="http://www.w3.org/2000/svg" xmlns:xlink="http://www.w3.org/1999/xlink">
    <!-- Generator: Sketch 55.2 (78181) - https://sketchapp.com -->
    <title>Storytelling&amp;ContentLab.</title>
    <desc>Created with Sketch.</desc>
    <g id="Page-3" stroke="none" stroke-width="1" fill="none" fill-rule="evenodd">
        <g id="Artboard-Copy" transform="translate(-110.000000, -85.000000)" fill="#000000" fill-rule="nonzero">
            <path d="M136.88,145.36 C122,145.36 110.72,138.96 110.48,125.76 L127.6,125.76 C128.16,130.32 131.68,132.48 137.2,132.48 C140.48,132.48 144.48,131.2 144.48,127.76 C144.48,124.32 140.64,123.44 133.6,121.68 C124,119.28 112.4,116 112.4,103.84 C112.4,90.72 123.12,85.76 136,85.76 C147.84,85.76 158.72,90.72 158.96,103.2 L142.4,103.2 C141.92,100.08 139.68,98.08 135.12,98.08 C131.44,98.08 128.88,99.76 128.88,102.08 C128.88,105.44 133.76,105.92 142.32,108 C151.92,110.32 161.52,114.08 161.52,126.24 C161.52,138.72 150.4,145.36 136.88,145.36 Z M162.4,112.32 L162.4,103.2 L167.68,103.2 L167.68,90 L182.48,90 L182.48,103.2 L190.24,103.2 L190.24,112.32 L182.48,112.32 L182.48,128.88 C182.48,132.96 185.36,133.04 190.08,132.72 L190.08,143.84 C187.76,144.4 185.36,144.8 182.64,144.8 C172.72,144.8 167.68,142 167.68,132.24 L167.68,112.32 L162.4,112.32 Z M214.88,145.28 C201.28,145.28 192.48,136.08 192.48,123.68 C192.48,111.28 201.28,102 214.88,102 C228.48,102 237.12,111.28 237.12,123.68 C237.12,136.08 228.48,145.28 214.88,145.28 Z M214.72,135.2 C219.36,135.2 221.76,130.56 221.76,123.68 C221.76,116.8 219.36,112.16 214.72,112.16 C210.08,112.16 207.84,116.8 207.84,123.68 C207.84,130.56 210.08,135.2 214.72,135.2 Z M255.28,103.2 L255.28,109.36 L255.52,109.36 C258.8,104.24 262.72,102.32 267.92,102.32 C269.12,102.32 269.92,102.48 270.4,102.72 L270.4,115.6 L270.08,115.6 C261.2,114.08 256,118.08 256,127.28 L256,144 L240.88,144 L240.88,103.2 L255.28,103.2 Z M277.04,157.52 L277.04,145.84 L282.08,145.84 C285.44,145.84 286.8,144.96 286.8,142.8 C286.8,141.52 285.92,139.36 284.96,136.96 L271.92,103.2 L287.84,103.2 L292.88,119.6 C294.16,123.76 295.28,129.52 295.28,129.52 L295.44,129.52 C295.44,129.52 296.64,123.76 297.92,119.6 L302.88,103.2 L317.92,103.2 L304,144 C300.56,154.08 295.76,157.52 287.52,157.52 L277.04,157.52 Z M319.52,112.32 L319.52,103.2 L324.8,103.2 L324.8,90 L339.6,90 L339.6,103.2 L347.36,103.2 L347.36,112.32 L339.6,112.32 L339.6,128.88 C339.6,132.96 342.48,133.04 347.2,132.72 L347.2,143.84 C344.88,144.4 342.48,144.8 339.76,144.8 C329.84,144.8 324.8,142 324.8,132.24 L324.8,112.32 L319.52,112.32 Z M371.92,145.12 C358.56,145.12 349.6,136 349.6,123.52 C349.6,111.2 358.48,101.84 371.36,101.84 C377.76,101.84 382.64,103.92 386.4,107.36 C391.36,111.92 393.68,119.2 393.52,127.28 L364.4,127.28 C365.28,132 367.84,134.88 372.4,134.88 C375.04,134.88 376.96,133.84 378.08,131.84 L392.72,131.84 C391.84,135.52 388.96,139.12 384.96,141.68 C381.2,144.08 377.12,145.12 371.92,145.12 Z M371.68,112 C367.52,112 365.2,114.8 364.4,119.28 L378.48,119.28 C377.84,114.72 375.28,112 371.68,112 Z M397.28,144 L397.28,86.8 L412.8,86.8 L412.8,144 L397.28,144 Z M418.24,144 L418.24,86.8 L433.76,86.8 L433.76,144 L418.24,144 Z M439.2,144 L439.2,103.2 L454.32,103.2 L454.32,144 L439.2,144 Z M439.2,98.24 L439.2,86.8 L454.32,86.8 L454.32,98.24 L439.2,98.24 Z M474.16,103.2 L474.16,108.8 L474.4,108.8 C477.68,104.32 481.84,101.92 487.52,101.92 C496.96,101.92 501.84,108.24 501.84,117.6 L501.84,144 L486.72,144 L486.72,121.28 C486.72,117.04 484.96,114.24 481.04,114.24 C477.2,114.24 474.88,117.6 474.88,122 L474.88,144 L459.76,144 L459.76,103.2 L474.16,103.2 Z M526.96,158.24 C515.52,158.24 507.52,153.76 506.08,144.72 L520.64,144.72 C521.2,146.4 523.12,148.16 526.72,148.16 C531.6,148.16 533.28,145.28 533.28,141.04 L533.28,137.36 L532.96,137.36 C530.56,140.08 527.36,142 522.64,142 C513.36,142 505.28,135.52 505.28,122.72 C505.28,111.04 511.92,101.92 521.92,101.92 C527.68,101.92 531.2,104.16 533.52,107.68 L533.76,107.68 L533.76,103.2 L548.16,103.2 L548.16,139.12 C548.16,145.68 545.76,150.72 542.16,153.76 C538.4,156.96 533.04,158.24 526.96,158.24 Z M526.96,131.44 C531.36,131.44 533.92,127.44 533.92,122.08 C533.92,116.96 531.36,112.88 526.96,112.88 C522.72,112.88 520,116.56 520,122.08 C520,127.52 522.72,131.44 526.96,131.44 Z M133.52,224.72 C119.6,224.72 111.92,217.2 111.92,207.12 C111.92,197.76 118,193.52 124.64,190.72 C122.4,188.16 120.56,184.56 120.56,180.4 C120.56,172 126.96,165.76 138,165.76 C148.08,165.76 155.36,171.12 155.36,180.16 C155.36,187.44 150,191.36 144.4,193.76 L150.56,201.28 C151.44,199.6 152.16,197.84 152.64,196.08 L165.6,196.08 C164.96,200.72 162.48,206.16 158.56,211.12 L169.2,224 L150.56,224 L147.92,220.56 C143.6,223.12 138.72,224.72 133.52,224.72 Z M134.32,212.8 C136.48,212.8 138.64,212.24 140.64,211.2 L131.76,199.68 C128.64,201.52 127.52,203.84 127.52,206.8 C127.52,210.48 130.24,212.8 134.32,212.8 Z M134.32,180.16 C134.32,182.72 136,184.8 138.08,186.48 C140.96,184.96 142.4,182.8 142.4,180.24 C142.4,178 140.96,176 138.4,176 C135.76,176 134.32,177.76 134.32,180.16 Z M211.04,225.36 C193.6,225.36 182.08,212.72 182.08,195.6 C182.08,178.48 193.84,165.76 211.04,165.76 C217.28,165.76 222.88,167.36 227.04,170.24 C232.96,174.32 236.4,180.72 237.12,188 L220.4,188 C220,183.52 216.24,179.52 210.8,179.52 C202.88,179.52 199.04,186.24 199.04,195.6 C199.04,204.96 203.52,211.68 210.96,211.68 C216.8,211.68 220.32,207.84 220.88,202.72 L237.76,202.72 C237.28,209.04 234.4,214.64 230.32,218.56 C225.44,223.28 219.36,225.36 211.04,225.36 Z M262.64,225.28 C249.04,225.28 240.24,216.08 240.24,203.68 C240.24,191.28 249.04,182 262.64,182 C276.24,182 284.88,191.28 284.88,203.68 C284.88,216.08 276.24,225.28 262.64,225.28 Z M262.48,215.2 C267.12,215.2 269.52,210.56 269.52,203.68 C269.52,196.8 267.12,192.16 262.48,192.16 C257.84,192.16 255.6,196.8 255.6,203.68 C255.6,210.56 257.84,215.2 262.48,215.2 Z M303.04,183.2 L303.04,188.8 L303.28,188.8 C306.56,184.32 310.72,181.92 316.4,181.92 C325.84,181.92 330.72,188.24 330.72,197.6 L330.72,224 L315.6,224 L315.6,201.28 C315.6,197.04 313.84,194.24 309.92,194.24 C306.08,194.24 303.76,197.6 303.76,202 L303.76,224 L288.64,224 L288.64,183.2 L303.04,183.2 Z M332.88,192.32 L332.88,183.2 L338.16,183.2 L338.16,170 L352.96,170 L352.96,183.2 L360.72,183.2 L360.72,192.32 L352.96,192.32 L352.96,208.88 C352.96,212.96 355.84,213.04 360.56,212.72 L360.56,223.84 C358.24,224.4 355.84,224.8 353.12,224.8 C343.2,224.8 338.16,222 338.16,212.24 L338.16,192.32 L332.88,192.32 Z M385.28,225.12 C371.92,225.12 362.96,216 362.96,203.52 C362.96,191.2 371.84,181.84 384.72,181.84 C391.12,181.84 396,183.92 399.76,187.36 C404.72,191.92 407.04,199.2 406.88,207.28 L377.76,207.28 C378.64,212 381.2,214.88 385.76,214.88 C388.4,214.88 390.32,213.84 391.44,211.84 L406.08,211.84 C405.2,215.52 402.32,219.12 398.32,221.68 C394.56,224.08 390.48,225.12 385.28,225.12 Z M385.04,192 C380.88,192 378.56,194.8 377.76,199.28 L391.84,199.28 C391.2,194.72 388.64,192 385.04,192 Z M425.04,183.2 L425.04,188.8 L425.28,188.8 C428.56,184.32 432.72,181.92 438.4,181.92 C447.84,181.92 452.72,188.24 452.72,197.6 L452.72,224 L437.6,224 L437.6,201.28 C437.6,197.04 435.84,194.24 431.92,194.24 C428.08,194.24 425.76,197.6 425.76,202 L425.76,224 L410.64,224 L410.64,183.2 L425.04,183.2 Z M454.88,192.32 L454.88,183.2 L460.16,183.2 L460.16,170 L474.96,170 L474.96,183.2 L482.72,183.2 L482.72,192.32 L474.96,192.32 L474.96,208.88 C474.96,212.96 477.84,213.04 482.56,212.72 L482.56,223.84 C480.24,224.4 477.84,224.8 475.12,224.8 C465.2,224.8 460.16,222 460.16,212.24 L460.16,192.32 L454.88,192.32 Z M113.44,304 L113.44,246.8 L130.16,246.8 L130.16,289.68 L154.64,289.68 L154.64,304 L113.44,304 Z M184.72,304 C184.16,303.04 183.68,301.76 183.36,299.52 L183.2,299.52 C180.48,303.28 176.16,305.04 170.88,305.04 C163.04,305.04 157.28,300.8 157.28,292.8 C157.28,283.76 164.24,281.12 172.08,280.24 C180.72,279.28 183.04,278.24 183.04,275.68 C183.04,273.44 182,271.76 178.72,271.76 C175.44,271.76 173.76,273.68 173.36,276.64 L159.04,276.64 C159.36,268.56 165.6,261.92 178.4,261.92 C184.64,261.92 188.64,262.72 191.76,264.64 C196,267.28 198.08,271.44 198.08,276.88 L198.08,297.28 C198.08,300.72 198.32,302.56 199.6,303.36 L199.6,304 L184.72,304 Z M176.56,296.08 C180.08,296.08 183.44,294.08 183.44,289.2 L183.44,285.6 C182,286.32 180.16,286.96 177.6,287.52 C173.2,288.48 171.84,289.76 171.84,292.16 C171.84,294.88 174.08,296.08 176.56,296.08 Z M231.04,305.36 C225.92,305.36 221.12,303.36 218.4,298.72 L218.24,298.72 L218.24,304 L203.84,304 L203.84,246.8 L218.96,246.8 L218.96,267.44 L219.2,267.44 C222.08,263.84 225.68,261.92 231.2,261.92 C242.16,261.92 248.48,271.68 248.48,283.52 C248.48,297.44 241.84,305.36 231.04,305.36 Z M226.08,293.84 C230.72,293.84 233.12,289.76 233.12,283.36 C233.12,276.96 230.64,272.88 226.08,272.88 C221.44,272.88 218.4,277.44 218.4,283.36 C218.4,289.36 221.44,293.84 226.08,293.84 Z M251.76,304 L251.76,288.72 L267.36,288.72 L267.36,304 L251.76,304 Z" id="Storytelling&amp;ContentLab."></path>
        </g>
    </g>
</svg>