<?xml version="1.0" encoding="UTF-8"?>
<svg width="572px" height="420px" viewBox="0 0 572 420" version="1.1" xmlns="http://www.w3.org/2000/svg" xmlns:xlink="http://www.w3.org/1999/xlink">
    <!-- Generator: Sketch 55.2 (78181) - https://sketchapp.com -->
    <title>Artboard</title>
    <desc>Created with Sketch.</desc>
    <g id="Artboard" stroke="none" stroke-width="1" fill="none" fill-rule="evenodd">
        <path d="M2.96147945,158.315154 L2.96147945,101 L19.6898364,101 L19.6898364,143.966325 L44.1820719,143.966325 L44.1820719,158.315154 L2.96147945,158.315154 Z M74.2771063,158.315154 C73.7168264,157.353221 73.2365865,156.070644 72.9164266,153.826135 L72.7563466,153.826135 C70.0349871,157.593704 65.7128279,159.357247 60.4301889,159.357247 C52.5862703,159.357247 46.8233914,155.108712 46.8233914,147.092606 C46.8233914,138.034407 53.7868701,135.389092 61.6307886,134.507321 C70.275107,133.545388 72.5962666,132.503294 72.5962666,129.938141 C72.5962666,127.693631 71.5557468,126.010249 68.2741074,126.010249 C64.992468,126.010249 63.3116283,127.934114 62.9114284,130.900073 L48.584271,130.900073 C48.904431,122.803807 55.1475498,116.150439 67.9539475,116.150439 C74.1970663,116.150439 78.1990656,116.95205 81.320625,118.875915 C85.5627442,121.52123 87.6437838,125.689605 87.6437838,131.140556 L87.6437838,151.581625 C87.6437838,155.028551 87.8839038,156.872255 89.1645436,157.673865 L89.1645436,158.315154 L74.2771063,158.315154 Z M66.1130278,150.379209 C69.6347872,150.379209 72.9964665,148.375183 72.9964665,143.485359 L72.9964665,139.878111 C71.5557468,140.599561 69.7148272,141.240849 67.1535476,141.801977 C62.7513484,142.763909 61.3906687,144.046486 61.3906687,146.451318 C61.3906687,149.176794 63.6317883,150.379209 66.1130278,150.379209 Z M120.620258,159.677892 C115.497699,159.677892 110.6953,157.673865 107.97394,153.024524 L107.81386,153.024524 L107.81386,158.315154 L93.4066628,158.315154 L93.4066628,101 L108.53422,101 L108.53422,121.681552 L108.77434,121.681552 C111.655779,118.074305 115.257579,116.150439 120.780338,116.150439 C131.745816,116.150439 138.068975,125.930088 138.068975,137.793924 C138.068975,151.741947 131.425656,159.677892 120.620258,159.677892 Z M115.657779,148.1347 C120.300098,148.1347 122.701297,144.046486 122.701297,137.633602 C122.701297,131.220717 120.220058,127.132504 115.657779,127.132504 C111.01546,127.132504 107.97394,131.701684 107.97394,137.633602 C107.97394,143.645681 111.01546,148.1347 115.657779,148.1347 Z M162.56121,159.597731 C148.954413,159.597731 140.150014,150.379209 140.150014,137.954246 C140.150014,125.529283 148.954413,116.2306 162.56121,116.2306 C176.168008,116.2306 184.812326,125.529283 184.812326,137.954246 C184.812326,150.379209 176.168008,159.597731 162.56121,159.597731 Z M162.40113,149.497438 C167.043449,149.497438 169.444649,144.848097 169.444649,137.954246 C169.444649,131.060395 167.043449,126.411054 162.40113,126.411054 C157.758811,126.411054 155.517691,131.060395 155.517691,137.954246 C155.517691,144.848097 157.758811,149.497438 162.40113,149.497438 Z M202.981403,117.433016 L202.981403,123.605417 L203.221523,123.605417 C206.503162,118.47511 210.425121,116.551245 215.62772,116.551245 C216.82832,116.551245 217.62872,116.711567 218.10896,116.95205 L218.10896,129.85798 L217.7888,129.85798 C208.904361,128.334919 203.701762,132.342972 203.701762,141.561493 L203.701762,158.315154 L188.574205,158.315154 L188.574205,117.433016 L202.981403,117.433016 Z M246.523155,158.315154 C245.962875,157.353221 245.482635,156.070644 245.162475,153.826135 L245.002395,153.826135 C242.281035,157.593704 237.958876,159.357247 232.676237,159.357247 C224.832319,159.357247 219.06944,155.108712 219.06944,147.092606 C219.06944,138.034407 226.032918,135.389092 233.876837,134.507321 C242.521155,133.545388 244.842315,132.503294 244.842315,129.938141 C244.842315,127.693631 243.801795,126.010249 240.520156,126.010249 C237.238516,126.010249 235.557677,127.934114 235.157477,130.900073 L220.830319,130.900073 C221.150479,122.803807 227.393598,116.150439 240.199996,116.150439 C246.443115,116.150439 250.445114,116.95205 253.566673,118.875915 C257.808792,121.52123 259.889832,125.689605 259.889832,131.140556 L259.889832,151.581625 C259.889832,155.028551 260.129952,156.872255 261.410592,157.673865 L261.410592,158.315154 L246.523155,158.315154 Z M238.359076,150.379209 C241.880835,150.379209 245.242515,148.375183 245.242515,143.485359 L245.242515,139.878111 C243.801795,140.599561 241.960875,141.240849 239.399596,141.801977 C234.997397,142.763909 233.636717,144.046486 233.636717,146.451318 C233.636717,149.176794 235.877837,150.379209 238.359076,150.379209 Z M263.091432,126.571376 L263.091432,117.433016 L268.374071,117.433016 L268.374071,104.206442 L283.181468,104.206442 L283.181468,117.433016 L290.945346,117.433016 L290.945346,126.571376 L283.181468,126.571376 L283.181468,143.164714 C283.181468,147.252928 286.062907,147.333089 290.785266,147.012445 L290.785266,158.154832 C288.464107,158.715959 286.062907,159.116764 283.341548,159.116764 C273.41659,159.116764 268.374071,156.311127 268.374071,146.531479 L268.374071,126.571376 L263.091432,126.571376 Z M315.597662,159.597731 C301.990864,159.597731 293.186466,150.379209 293.186466,137.954246 C293.186466,125.529283 301.990864,116.2306 315.597662,116.2306 C329.204459,116.2306 337.848778,125.529283 337.848778,137.954246 C337.848778,150.379209 329.204459,159.597731 315.597662,159.597731 Z M315.437582,149.497438 C320.079901,149.497438 322.481101,144.848097 322.481101,137.954246 C322.481101,131.060395 320.079901,126.411054 315.437582,126.411054 C310.795263,126.411054 308.554143,131.060395 308.554143,137.954246 C308.554143,144.848097 310.795263,149.497438 315.437582,149.497438 Z M356.017854,117.433016 L356.017854,123.605417 L356.257974,123.605417 C359.539614,118.47511 363.461573,116.551245 368.664172,116.551245 C369.864772,116.551245 370.665172,116.711567 371.145412,116.95205 L371.145412,129.85798 L370.825252,129.85798 C361.940813,128.334919 356.738214,132.342972 356.738214,141.561493 L356.738214,158.315154 L341.610657,158.315154 L341.610657,117.433016 L356.017854,117.433016 Z M374.747211,158.315154 L374.747211,117.433016 L389.874768,117.433016 L389.874768,158.315154 L374.747211,158.315154 Z M374.747211,112.463031 L374.747211,101 L389.874768,101 L389.874768,112.463031 L374.747211,112.463031 Z M416.047843,159.597731 C402.441046,159.597731 393.636647,150.379209 393.636647,137.954246 C393.636647,125.529283 402.441046,116.2306 416.047843,116.2306 C429.654641,116.2306 438.298959,125.529283 438.298959,137.954246 C438.298959,150.379209 429.654641,159.597731 416.047843,159.597731 Z M415.887763,149.497438 C420.530082,149.497438 422.931282,144.848097 422.931282,137.954246 C422.931282,131.060395 420.530082,126.411054 415.887763,126.411054 C411.245444,126.411054 409.004325,131.060395 409.004325,137.954246 C409.004325,144.848097 411.245444,149.497438 415.887763,149.497438 Z M470.715153,159.677892 C460.149875,159.677892 452.305957,151.902269 452.305957,137.793924 C452.305957,124.968155 459.669635,116.150439 470.555073,116.150439 C476.397992,116.150439 479.279432,118.314788 481.920751,121.761713 L482.160871,121.761713 L482.160871,101 L497.288428,101 L497.288428,158.315154 L482.881231,158.315154 L482.881231,152.623719 L482.721151,152.623719 C480.079832,157.192899 475.757672,159.677892 470.715153,159.677892 Z M475.037312,148.214861 C479.519552,148.214861 482.561071,143.485359 482.561071,137.553441 C482.561071,131.701684 479.519552,127.052343 475.037312,127.052343 C470.635113,127.052343 467.673634,131.300878 467.673634,137.553441 C467.673634,143.806003 470.555073,148.214861 475.037312,148.214861 Z M523.381464,159.437408 C510.014786,159.437408 501.050308,150.299048 501.050308,137.793924 C501.050308,125.449122 509.934746,116.070278 522.821184,116.070278 C529.224382,116.070278 534.106822,118.154466 537.868701,121.601391 C542.83118,126.170571 545.15234,133.465227 544.99226,141.561493 L515.857705,141.561493 C516.738145,146.290996 519.299424,149.176794 523.861703,149.176794 C526.503023,149.176794 528.423983,148.1347 529.544542,146.130673 L544.19186,146.130673 C543.31142,149.818082 540.42998,153.425329 536.427981,155.990483 C532.666102,158.395315 528.584063,159.437408 523.381464,159.437408 Z M523.141344,126.250732 C518.979264,126.250732 516.658105,129.056369 515.857705,133.545388 L529.944742,133.545388 C529.304422,128.976208 526.743143,126.250732 523.141344,126.250732 Z M26.4131951,239.838946 C11.5257579,239.838946 0.240119956,233.426061 0,220.199488 L17.1285568,220.199488 C17.6888367,224.768668 21.2105961,226.933016 26.7333551,226.933016 C30.0149945,226.933016 34.0169937,225.650439 34.0169937,222.203514 C34.0169937,218.756589 30.1750744,217.874817 23.1315557,216.111274 C13.5267575,213.706442 1.92095965,210.419839 1.92095965,198.235359 C1.92095965,185.088946 12.6463177,180.11896 25.5327553,180.11896 C37.3786731,180.11896 48.2641111,185.088946 48.5042311,197.59407 L31.9359541,197.59407 C31.4557142,194.467789 29.2145946,192.463763 24.6523155,192.463763 C20.9704761,192.463763 18.4091966,194.147145 18.4091966,196.471816 C18.4091966,199.83858 23.2916357,200.319546 31.8559141,202.403734 C41.4607124,204.728404 51.0655106,208.495974 51.0655106,220.680454 C51.0655106,233.185578 39.9399526,239.838946 26.4131951,239.838946 Z M51.9459504,206.73243 L51.9459504,197.59407 L57.2285895,197.59407 L57.2285895,184.367496 L72.0359867,184.367496 L72.0359867,197.59407 L79.7998653,197.59407 L79.7998653,206.73243 L72.0359867,206.73243 L72.0359867,223.325769 C72.0359867,227.413982 74.9174262,227.494143 79.6397853,227.173499 L79.6397853,238.315886 C77.3186258,238.877013 74.9174262,239.277818 72.1960667,239.277818 C62.2711085,239.277818 57.2285895,236.472182 57.2285895,226.692533 L57.2285895,206.73243 L51.9459504,206.73243 Z M104.452181,239.758785 C90.8453833,239.758785 82.0409849,230.540264 82.0409849,218.1153 C82.0409849,205.690337 90.8453833,196.391654 104.452181,196.391654 C118.058978,196.391654 126.703297,205.690337 126.703297,218.1153 C126.703297,230.540264 118.058978,239.758785 104.452181,239.758785 Z M104.292101,229.658492 C108.93442,229.658492 111.335619,225.009151 111.335619,218.1153 C111.335619,211.221449 108.93442,206.572108 104.292101,206.572108 C99.6497816,206.572108 97.408662,211.221449 97.408662,218.1153 C97.408662,225.009151 99.6497816,229.658492 104.292101,229.658492 Z M144.872373,197.59407 L144.872373,203.766471 L145.112493,203.766471 C148.394133,198.636164 152.316092,196.712299 157.518691,196.712299 C158.719291,196.712299 159.519691,196.872621 159.999931,197.113104 L159.999931,210.019034 L159.679771,210.019034 C150.795332,208.495974 145.592733,212.504026 145.592733,221.722548 L145.592733,238.476208 L130.465176,238.476208 L130.465176,197.59407 L144.872373,197.59407 Z M166.643249,252.023426 L166.643249,240.319912 L171.685768,240.319912 C175.047448,240.319912 176.408127,239.438141 176.408127,237.273792 C176.408127,235.991215 175.527688,233.826867 174.567208,231.422035 L161.52069,197.59407 L177.448647,197.59407 L182.491166,214.027086 C183.771806,218.195461 184.892366,223.967057 184.892366,223.967057 L185.052446,223.967057 C185.052446,223.967057 186.253046,218.195461 187.533685,214.027086 L192.496165,197.59407 L207.543682,197.59407 L193.616724,238.476208 C190.175005,248.576501 185.372606,252.023426 177.128487,252.023426 L166.643249,252.023426 Z M209.144481,206.73243 L209.144481,197.59407 L214.42712,197.59407 L214.42712,184.367496 L229.234518,184.367496 L229.234518,197.59407 L236.998396,197.59407 L236.998396,206.73243 L229.234518,206.73243 L229.234518,223.325769 C229.234518,227.413982 232.115957,227.494143 236.838316,227.173499 L236.838316,238.315886 C234.517157,238.877013 232.115957,239.277818 229.394598,239.277818 C219.46964,239.277818 214.42712,236.472182 214.42712,226.692533 L214.42712,206.73243 L209.144481,206.73243 Z M261.570672,239.598463 C248.203994,239.598463 239.239516,230.460102 239.239516,217.954978 C239.239516,205.610176 248.123954,196.231332 261.010392,196.231332 C267.413591,196.231332 272.29603,198.31552 276.057909,201.762445 C281.020388,206.331625 283.341548,213.626281 283.181468,221.722548 L254.046913,221.722548 C254.927353,226.45205 257.488633,229.337848 262.050912,229.337848 C264.692231,229.337848 266.613191,228.295754 267.733751,226.291728 L282.381068,226.291728 C281.500628,229.979136 278.619189,233.586384 274.617189,236.151537 C270.85531,238.556369 266.773271,239.598463 261.570672,239.598463 Z M261.330552,206.411786 C257.168473,206.411786 254.847313,209.217423 254.046913,213.706442 L268.133951,213.706442 C267.493631,209.137262 264.932351,206.411786 261.330552,206.411786 Z M286.943347,238.476208 L286.943347,181.161054 L302.471104,181.161054 L302.471104,238.476208 L286.943347,238.476208 Z M307.913823,238.476208 L307.913823,181.161054 L323.44158,181.161054 L323.44158,238.476208 L307.913823,238.476208 Z M328.884299,238.476208 L328.884299,197.59407 L344.011857,197.59407 L344.011857,238.476208 L328.884299,238.476208 Z M328.884299,192.624085 L328.884299,181.161054 L344.011857,181.161054 L344.011857,192.624085 L328.884299,192.624085 Z M363.861773,197.59407 L363.861773,203.205344 L364.101893,203.205344 C367.383532,198.716325 371.545612,196.311493 377.22845,196.311493 C386.673169,196.311493 391.555608,202.644217 391.555608,212.02306 L391.555608,238.476208 L376.428051,238.476208 L376.428051,215.710469 C376.428051,211.461933 374.667171,208.656296 370.745212,208.656296 C366.903292,208.656296 364.582133,212.02306 364.582133,216.431918 L364.582133,238.476208 L349.454576,238.476208 L349.454576,197.59407 L363.861773,197.59407 Z M416.688163,252.744876 C405.242445,252.744876 397.238447,248.255857 395.797727,239.197657 L410.365004,239.197657 C410.925284,240.88104 412.846244,242.644583 416.448043,242.644583 C421.330482,242.644583 423.011322,239.758785 423.011322,235.510249 L423.011322,231.82284 L422.691162,231.82284 C420.289963,234.548316 417.088363,236.472182 412.366004,236.472182 C403.081366,236.472182 394.997327,229.979136 394.997327,217.153367 C394.997327,205.449854 401.640646,196.311493 411.645644,196.311493 C417.408523,196.311493 420.930282,198.556003 423.251442,202.083089 L423.491562,202.083089 L423.491562,197.59407 L437.898759,197.59407 L437.898759,233.586384 C437.898759,240.15959 435.49756,245.209736 431.89576,248.255857 C428.133881,251.462299 422.771202,252.744876 416.688163,252.744876 Z M416.688163,225.890922 C421.090362,225.890922 423.651642,221.88287 423.651642,216.512079 C423.651642,211.381772 421.090362,207.293558 416.688163,207.293558 C412.446044,207.293558 409.724684,210.980966 409.724684,216.512079 C409.724684,221.963031 412.446044,225.890922 416.688163,225.890922 Z M476.077832,239.197657 C462.150875,239.197657 454.467036,231.662518 454.467036,221.562225 C454.467036,212.183382 460.550075,207.934846 467.193394,205.129209 C464.952274,202.564056 463.111355,198.956808 463.111355,194.788433 C463.111355,186.371523 469.514553,180.11896 480.560071,180.11896 C490.64511,180.11896 497.928748,185.489751 497.928748,194.54795 C497.928748,201.842606 492.566069,205.770498 486.96327,208.175329 L493.126349,215.710469 C494.006789,214.027086 494.727149,212.263543 495.207389,210.5 L508.173866,210.5 C507.533546,215.149341 505.052307,220.600293 501.130348,225.570278 L511.775666,238.476208 L493.126349,238.476208 L490.48503,235.029283 C486.16287,237.594436 481.280431,239.197657 476.077832,239.197657 Z M476.878232,227.25366 C479.039312,227.25366 481.200391,226.692533 483.201391,225.650439 L474.316953,214.107247 C471.195393,215.950952 470.074833,218.275622 470.074833,221.241581 C470.074833,224.92899 472.796193,227.25366 476.878232,227.25366 Z M476.878232,194.54795 C476.878232,197.113104 478.559072,199.197291 480.640111,200.880673 C483.521551,199.357613 484.962271,197.193265 484.962271,194.628111 C484.962271,192.383602 483.521551,190.379575 480.960271,190.379575 C478.318952,190.379575 476.878232,192.143119 476.878232,194.54795 Z M29.6948345,320 C12.2461177,320 0.720359867,307.334553 0.720359867,290.180088 C0.720359867,273.025622 12.4862377,260.280015 29.6948345,260.280015 C35.9379534,260.280015 41.5407523,261.883236 45.7028316,264.769034 C51.6257905,268.857247 55.0675099,275.270132 55.7878697,282.564788 L39.0595128,282.564788 C38.6593129,278.075769 34.8974336,274.067716 29.4547146,274.067716 C21.530756,274.067716 17.6888367,280.801245 17.6888367,290.180088 C17.6888367,299.558931 22.1710759,306.29246 29.6147945,306.29246 C35.4577135,306.29246 38.9794728,302.444729 39.5397527,297.314422 L56.4281896,297.314422 C55.9479497,303.647145 53.0665102,309.258419 48.984471,313.18631 C44.1020319,317.915813 38.018993,320 29.6948345,320 Z M81.320625,319.919839 C67.7138275,319.919839 58.9094291,310.701318 58.9094291,298.276354 C58.9094291,285.851391 67.7138275,276.552709 81.320625,276.552709 C94.9274225,276.552709 103.571741,285.851391 103.571741,298.276354 C103.571741,310.701318 94.9274225,319.919839 81.320625,319.919839 Z M81.160545,309.819546 C85.8028642,309.819546 88.2040637,305.170205 88.2040637,298.276354 C88.2040637,291.382504 85.8028642,286.733163 81.160545,286.733163 C76.5182259,286.733163 74.2771063,291.382504 74.2771063,298.276354 C74.2771063,305.170205 76.5182259,309.819546 81.160545,309.819546 Z M121.740818,277.755124 L121.740818,283.366398 L121.980938,283.366398 C125.262577,278.877379 129.424656,276.472548 135.107495,276.472548 C144.552213,276.472548 149.434652,282.805271 149.434652,292.184114 L149.434652,318.637262 L134.307095,318.637262 L134.307095,295.871523 C134.307095,291.622987 132.546216,288.81735 128.624256,288.81735 C124.782337,288.81735 122.461177,292.184114 122.461177,296.592972 L122.461177,318.637262 L107.33362,318.637262 L107.33362,277.755124 L121.740818,277.755124 Z M151.595732,286.893485 L151.595732,277.755124 L156.878371,277.755124 L156.878371,264.528551 L171.685768,264.528551 L171.685768,277.755124 L179.449647,277.755124 L179.449647,286.893485 L171.685768,286.893485 L171.685768,303.486823 C171.685768,307.575037 174.567208,307.655198 179.289567,307.334553 L179.289567,318.47694 C176.968407,319.038067 174.567208,319.438873 171.845848,319.438873 C161.92089,319.438873 156.878371,316.633236 156.878371,306.853587 L156.878371,286.893485 L151.595732,286.893485 Z M204.021922,319.759517 C190.655245,319.759517 181.690767,310.621157 181.690767,298.116032 C181.690767,285.77123 190.575205,276.392387 203.461643,276.392387 C209.864841,276.392387 214.74728,278.476574 218.50916,281.923499 C223.471639,286.492679 225.792798,293.787335 225.632718,301.883602 L196.498164,301.883602 C197.378604,306.613104 199.939883,309.498902 204.502162,309.498902 C207.143482,309.498902 209.064441,308.456808 210.185001,306.452782 L224.832319,306.452782 C223.951879,310.14019 221.070439,313.747438 217.06844,316.312592 C213.306561,318.717423 209.224521,319.759517 204.021922,319.759517 Z M203.781802,286.57284 C199.619723,286.57284 197.298564,289.378477 196.498164,293.867496 L210.585201,293.867496 C209.944881,289.298316 207.383602,286.57284 203.781802,286.57284 Z M243.801795,277.755124 L243.801795,283.366398 L244.041915,283.366398 C247.323554,278.877379 251.485634,276.472548 257.168473,276.472548 C266.613191,276.472548 271.49563,282.805271 271.49563,292.184114 L271.49563,318.637262 L256.368073,318.637262 L256.368073,295.871523 C256.368073,291.622987 254.607193,288.81735 250.685234,288.81735 C246.843315,288.81735 244.522155,292.184114 244.522155,296.592972 L244.522155,318.637262 L229.394598,318.637262 L229.394598,277.755124 L243.801795,277.755124 Z M276.618189,318.637262 L276.618189,277.755124 L291.745746,277.755124 L291.745746,318.637262 L276.618189,318.637262 Z M276.618189,272.785139 L276.618189,261.322108 L291.745746,261.322108 L291.745746,272.785139 L276.618189,272.785139 Z M313.916822,320 C303.351544,320 295.507626,312.224378 295.507626,298.116032 C295.507626,285.290264 302.871304,276.472548 313.756742,276.472548 C319.599661,276.472548 322.481101,278.636896 325.12242,282.083821 L325.36254,282.083821 L325.36254,261.322108 L340.490097,261.322108 L340.490097,318.637262 L326.0829,318.637262 L326.0829,312.945827 L325.92282,312.945827 C323.2815,317.515007 318.959341,320 313.916822,320 Z M318.238981,308.536969 C322.721221,308.536969 325.76274,303.807467 325.76274,297.875549 C325.76274,292.023792 322.721221,287.374451 318.238981,287.374451 C313.836782,287.374451 310.875303,291.622987 310.875303,297.875549 C310.875303,304.128111 313.756742,308.536969 318.238981,308.536969 Z M366.663172,319.919839 C353.056375,319.919839 344.251977,310.701318 344.251977,298.276354 C344.251977,285.851391 353.056375,276.552709 366.663172,276.552709 C380.26997,276.552709 388.914288,285.851391 388.914288,298.276354 C388.914288,310.701318 380.26997,319.919839 366.663172,319.919839 Z M366.503092,309.819546 C371.145412,309.819546 373.546611,305.170205 373.546611,298.276354 C373.546611,291.382504 371.145412,286.733163 366.503092,286.733163 C361.860773,286.733163 359.619654,291.382504 359.619654,298.276354 C359.619654,305.170205 361.860773,309.819546 366.503092,309.819546 Z" id="LaboratoriodeStorytelling&amp;Contenido" fill="#000000" fill-rule="nonzero"></path>
    </g>
</svg>